<mxfile host="app.diagrams.net" modified="2023-11-01T21:20:25.792Z" agent="Mozilla/5.0 (Macintosh; Intel Mac OS X 10_15_7) AppleWebKit/605.1.15 (KHTML, like Gecko) Version/15.4 Safari/605.1.15" etag="fupfDx0fhZj5K--cSimx" version="22.0.8" type="device">
  <diagram name="Страница — 1" id="I5bkQgufGpS3arDq2uPp">
    <mxGraphModel dx="1026" dy="692" grid="0" gridSize="10" guides="1" tooltips="1" connect="1" arrows="1" fold="1" page="1" pageScale="1" pageWidth="3300" pageHeight="4681" math="0" shadow="0">
      <root>
        <mxCell id="0" />
        <mxCell id="1" parent="0" />
        <mxCell id="2DmFidUWHQ-WV6GZ3Nr7-1" value="Data Producer" style="shape=umlActor;verticalLabelPosition=bottom;verticalAlign=top;html=1;strokeColor=#457B9D;fontColor=#1D3557;fillColor=#A8DADC;" vertex="1" parent="1">
          <mxGeometry x="105" y="80" width="30" height="60" as="geometry" />
        </mxCell>
        <mxCell id="2DmFidUWHQ-WV6GZ3Nr7-2" value="Files DB" style="ellipse;shape=umlEntity;whiteSpace=wrap;html=1;strokeColor=#457B9D;fontColor=#1D3557;fillColor=#A8DADC;" vertex="1" parent="1">
          <mxGeometry x="1490" y="80" width="60" height="60" as="geometry" />
        </mxCell>
        <mxCell id="2DmFidUWHQ-WV6GZ3Nr7-3" value="Task Manager" style="ellipse;shape=umlControl;whiteSpace=wrap;html=1;strokeColor=#457B9D;fontColor=#1D3557;fillColor=#A8DADC;" vertex="1" parent="1">
          <mxGeometry x="2330" y="75" width="60" height="70" as="geometry" />
        </mxCell>
        <mxCell id="2DmFidUWHQ-WV6GZ3Nr7-4" value="Kafka" style="ellipse;shape=umlEntity;whiteSpace=wrap;html=1;strokeColor=#457B9D;fontColor=#1D3557;fillColor=#A8DADC;" vertex="1" parent="1">
          <mxGeometry x="2050" y="80" width="60" height="60" as="geometry" />
        </mxCell>
        <mxCell id="2DmFidUWHQ-WV6GZ3Nr7-5" value="Logins&lt;br&gt;&amp;nbsp;DB" style="ellipse;shape=umlEntity;whiteSpace=wrap;html=1;strokeColor=#457B9D;fontColor=#1D3557;fillColor=#A8DADC;" vertex="1" parent="1">
          <mxGeometry x="1210" y="80" width="60" height="60" as="geometry" />
        </mxCell>
        <mxCell id="2DmFidUWHQ-WV6GZ3Nr7-6" value="" style="endArrow=none;dashed=1;html=1;dashPattern=1 3;strokeWidth=2;rounded=0;strokeColor=#457B9D;fontColor=#1D3557;fillColor=#A8DADC;entryX=0.5;entryY=0.5;entryDx=0;entryDy=0;entryPerimeter=0;" edge="1" parent="1" source="2DmFidUWHQ-WV6GZ3Nr7-122" target="2DmFidUWHQ-WV6GZ3Nr7-1">
          <mxGeometry width="50" height="50" relative="1" as="geometry">
            <mxPoint x="120" y="4481" as="sourcePoint" />
            <mxPoint x="140" y="270" as="targetPoint" />
          </mxGeometry>
        </mxCell>
        <mxCell id="2DmFidUWHQ-WV6GZ3Nr7-7" value="" style="endArrow=none;dashed=1;html=1;dashPattern=1 3;strokeWidth=2;rounded=0;strokeColor=#457B9D;fontColor=#1D3557;fillColor=#A8DADC;entryX=0.5;entryY=1;entryDx=0;entryDy=0;" edge="1" parent="1" target="2DmFidUWHQ-WV6GZ3Nr7-5">
          <mxGeometry width="50" height="50" relative="1" as="geometry">
            <mxPoint x="1240" y="4480" as="sourcePoint" />
            <mxPoint x="1239.5" y="160" as="targetPoint" />
          </mxGeometry>
        </mxCell>
        <mxCell id="2DmFidUWHQ-WV6GZ3Nr7-8" value="" style="endArrow=none;dashed=1;html=1;dashPattern=1 3;strokeWidth=2;rounded=0;strokeColor=#457B9D;fontColor=#1D3557;fillColor=#A8DADC;entryX=0.5;entryY=1;entryDx=0;entryDy=0;" edge="1" parent="1" source="2DmFidUWHQ-WV6GZ3Nr7-127" target="2DmFidUWHQ-WV6GZ3Nr7-2">
          <mxGeometry width="50" height="50" relative="1" as="geometry">
            <mxPoint x="1520" y="4480" as="sourcePoint" />
            <mxPoint x="1520" y="160" as="targetPoint" />
          </mxGeometry>
        </mxCell>
        <mxCell id="2DmFidUWHQ-WV6GZ3Nr7-9" value="" style="endArrow=none;dashed=1;html=1;dashPattern=1 3;strokeWidth=2;rounded=0;strokeColor=#457B9D;fontColor=#1D3557;fillColor=#A8DADC;entryX=0.5;entryY=1;entryDx=0;entryDy=0;" edge="1" parent="1" target="2DmFidUWHQ-WV6GZ3Nr7-4">
          <mxGeometry width="50" height="50" relative="1" as="geometry">
            <mxPoint x="2080" y="4480" as="sourcePoint" />
            <mxPoint x="2080" y="160" as="targetPoint" />
          </mxGeometry>
        </mxCell>
        <mxCell id="2DmFidUWHQ-WV6GZ3Nr7-10" value="" style="endArrow=none;dashed=1;html=1;dashPattern=1 3;strokeWidth=2;rounded=0;strokeColor=#457B9D;fontColor=#1D3557;fillColor=#A8DADC;entryX=0.5;entryY=0.986;entryDx=0;entryDy=0;entryPerimeter=0;" edge="1" parent="1" source="2DmFidUWHQ-WV6GZ3Nr7-185" target="2DmFidUWHQ-WV6GZ3Nr7-3">
          <mxGeometry width="50" height="50" relative="1" as="geometry">
            <mxPoint x="2360" y="4480" as="sourcePoint" />
            <mxPoint x="2360" y="160" as="targetPoint" />
          </mxGeometry>
        </mxCell>
        <mxCell id="2DmFidUWHQ-WV6GZ3Nr7-11" value="User&amp;nbsp;&lt;br&gt;Based&lt;br&gt;Back" style="ellipse;shape=umlControl;whiteSpace=wrap;html=1;strokeColor=#457B9D;fontColor=#1D3557;fillColor=#A8DADC;" vertex="1" parent="1">
          <mxGeometry x="650" y="75" width="60" height="70" as="geometry" />
        </mxCell>
        <mxCell id="2DmFidUWHQ-WV6GZ3Nr7-12" value="" style="endArrow=none;dashed=1;html=1;dashPattern=1 3;strokeWidth=2;rounded=0;strokeColor=#457B9D;fontColor=#1D3557;fillColor=#A8DADC;entryX=0.5;entryY=0.986;entryDx=0;entryDy=0;entryPerimeter=0;" edge="1" parent="1" target="2DmFidUWHQ-WV6GZ3Nr7-11" source="2DmFidUWHQ-WV6GZ3Nr7-124">
          <mxGeometry width="50" height="50" relative="1" as="geometry">
            <mxPoint x="680" y="4480" as="sourcePoint" />
            <mxPoint x="680" y="160" as="targetPoint" />
          </mxGeometry>
        </mxCell>
        <mxCell id="2DmFidUWHQ-WV6GZ3Nr7-13" value="UI" style="shape=umlBoundary;whiteSpace=wrap;html=1;strokeColor=#457B9D;fontColor=#1D3557;fillColor=#A8DADC;" vertex="1" parent="1">
          <mxGeometry x="360" y="85" width="70" height="55" as="geometry" />
        </mxCell>
        <mxCell id="2DmFidUWHQ-WV6GZ3Nr7-14" value="Server&lt;br&gt;Storage" style="ellipse;shape=umlEntity;whiteSpace=wrap;html=1;strokeColor=#457B9D;fontColor=#1D3557;fillColor=#A8DADC;" vertex="1" parent="1">
          <mxGeometry x="930" y="80" width="60" height="60" as="geometry" />
        </mxCell>
        <mxCell id="2DmFidUWHQ-WV6GZ3Nr7-15" value="" style="endArrow=none;dashed=1;html=1;dashPattern=1 3;strokeWidth=2;rounded=0;strokeColor=#457B9D;fontColor=#1D3557;fillColor=#A8DADC;entryX=0.5;entryY=1;entryDx=0;entryDy=0;" edge="1" parent="1" target="2DmFidUWHQ-WV6GZ3Nr7-14">
          <mxGeometry width="50" height="50" relative="1" as="geometry">
            <mxPoint x="960" y="4480" as="sourcePoint" />
            <mxPoint x="959.5" y="160" as="targetPoint" />
          </mxGeometry>
        </mxCell>
        <mxCell id="2DmFidUWHQ-WV6GZ3Nr7-16" value="" style="endArrow=none;dashed=1;html=1;dashPattern=1 3;strokeWidth=2;rounded=0;strokeColor=#457B9D;fontColor=#1D3557;fillColor=#A8DADC;entryX=0.557;entryY=1.055;entryDx=0;entryDy=0;entryPerimeter=0;" edge="1" parent="1" source="2DmFidUWHQ-WV6GZ3Nr7-119" target="2DmFidUWHQ-WV6GZ3Nr7-13">
          <mxGeometry width="50" height="50" relative="1" as="geometry">
            <mxPoint x="400" y="4480" as="sourcePoint" />
            <mxPoint x="400.5" y="150" as="targetPoint" />
          </mxGeometry>
        </mxCell>
        <mxCell id="2DmFidUWHQ-WV6GZ3Nr7-17" value="&#39;See Orders&#39; Button Pressed" style="html=1;verticalAlign=bottom;endArrow=block;curved=0;rounded=0;strokeColor=#457B9D;fontColor=#1D3557;fillColor=#A8DADC;" edge="1" parent="1">
          <mxGeometry width="80" relative="1" as="geometry">
            <mxPoint x="120" y="200" as="sourcePoint" />
            <mxPoint x="400" y="200" as="targetPoint" />
          </mxGeometry>
        </mxCell>
        <mxCell id="2DmFidUWHQ-WV6GZ3Nr7-18" value="Get User &#39;Department&#39; Name by &#39;Login&#39;" style="html=1;verticalAlign=bottom;endArrow=block;curved=0;rounded=0;strokeColor=#457B9D;fontColor=#1D3557;fillColor=#A8DADC;" edge="1" parent="1">
          <mxGeometry width="80" relative="1" as="geometry">
            <mxPoint x="679" y="280" as="sourcePoint" />
            <mxPoint x="1239" y="280" as="targetPoint" />
          </mxGeometry>
        </mxCell>
        <mxCell id="2DmFidUWHQ-WV6GZ3Nr7-19" value="Send User &#39;Department&#39; Name" style="html=1;verticalAlign=bottom;endArrow=block;curved=0;rounded=0;strokeColor=#457B9D;fontColor=#1D3557;fillColor=#A8DADC;" edge="1" parent="1">
          <mxGeometry width="80" relative="1" as="geometry">
            <mxPoint x="1239" y="420" as="sourcePoint" />
            <mxPoint x="679" y="420" as="targetPoint" />
          </mxGeometry>
        </mxCell>
        <mxCell id="2DmFidUWHQ-WV6GZ3Nr7-20" value="" style="html=1;points=[[0,0,0,0,5],[0,1,0,0,-5],[1,0,0,0,5],[1,1,0,0,-5]];perimeter=orthogonalPerimeter;outlineConnect=0;targetShapes=umlLifeline;portConstraint=eastwest;newEdgeStyle={&quot;curved&quot;:0,&quot;rounded&quot;:0};strokeColor=#457B9D;fontColor=#1D3557;fillColor=#A8DADC;" vertex="1" parent="1">
          <mxGeometry x="675" y="280" width="10" height="140" as="geometry" />
        </mxCell>
        <mxCell id="2DmFidUWHQ-WV6GZ3Nr7-21" value="" style="html=1;points=[[0,0,0,0,5],[0,1,0,0,-5],[1,0,0,0,5],[1,1,0,0,-5]];perimeter=orthogonalPerimeter;outlineConnect=0;targetShapes=umlLifeline;portConstraint=eastwest;newEdgeStyle={&quot;curved&quot;:0,&quot;rounded&quot;:0};strokeColor=#457B9D;fontColor=#1D3557;fillColor=#A8DADC;" vertex="1" parent="1">
          <mxGeometry x="1232" y="299" width="10" height="86" as="geometry" />
        </mxCell>
        <mxCell id="2DmFidUWHQ-WV6GZ3Nr7-22" value="Find &#39;Department&#39; Name for &#39;Login&#39;" style="html=1;verticalAlign=bottom;endArrow=block;curved=0;rounded=0;strokeColor=#457B9D;fontColor=#1D3557;fillColor=#A8DADC;" edge="1" parent="1">
          <mxGeometry width="80" relative="1" as="geometry">
            <mxPoint x="1239" y="300" as="sourcePoint" />
            <mxPoint x="1239" y="390" as="targetPoint" />
            <Array as="points">
              <mxPoint x="1319" y="300" />
              <mxPoint x="1319" y="390" />
            </Array>
          </mxGeometry>
        </mxCell>
        <mxCell id="2DmFidUWHQ-WV6GZ3Nr7-23" value="Send Request for Orders List for Current D.P." style="html=1;verticalAlign=bottom;endArrow=block;curved=0;rounded=0;strokeColor=#457B9D;fontColor=#1D3557;fillColor=#A8DADC;" edge="1" parent="1">
          <mxGeometry width="80" relative="1" as="geometry">
            <mxPoint x="400" y="240" as="sourcePoint" />
            <mxPoint x="680" y="240" as="targetPoint" />
          </mxGeometry>
        </mxCell>
        <mxCell id="2DmFidUWHQ-WV6GZ3Nr7-26" value="Get &#39;Link to File&#39;, &#39;Description&#39;, &#39;Read Marker&#39;, &#39;Sender (Login)&#39;, &#39;Complaint Description&#39;&lt;br&gt;for all &#39;Orders&#39; where&amp;nbsp;&#39;Orders.Department&#39; = &#39;User Department&#39;, &lt;br&gt;&#39;Orders.Sent_Marker&#39; = false,&amp;nbsp;&#39;Orders.Verified_Marker&#39; = true,&lt;br&gt;&amp;nbsp;&#39;Orders.Bad_Order_Marker&#39; = false,&amp;nbsp;&#39;Orders.Done_Order_Marker&#39; = false" style="html=1;verticalAlign=bottom;endArrow=block;curved=0;rounded=0;strokeColor=#457B9D;fontColor=#1D3557;fillColor=#A8DADC;" edge="1" parent="1">
          <mxGeometry width="80" relative="1" as="geometry">
            <mxPoint x="680" y="520" as="sourcePoint" />
            <mxPoint x="1520" y="520" as="targetPoint" />
          </mxGeometry>
        </mxCell>
        <mxCell id="2DmFidUWHQ-WV6GZ3Nr7-27" value="Form Requested Data" style="html=1;verticalAlign=bottom;endArrow=block;curved=0;rounded=0;strokeColor=#457B9D;fontColor=#1D3557;fillColor=#A8DADC;" edge="1" parent="1">
          <mxGeometry width="80" relative="1" as="geometry">
            <mxPoint x="1520" y="540" as="sourcePoint" />
            <mxPoint x="1520" y="640" as="targetPoint" />
            <Array as="points">
              <mxPoint x="1600" y="540" />
              <mxPoint x="1600" y="640" />
            </Array>
          </mxGeometry>
        </mxCell>
        <mxCell id="2DmFidUWHQ-WV6GZ3Nr7-28" value="Send Requested Data" style="html=1;verticalAlign=bottom;endArrow=block;curved=0;rounded=0;strokeColor=#457B9D;fontColor=#1D3557;fillColor=#A8DADC;" edge="1" parent="1">
          <mxGeometry width="80" relative="1" as="geometry">
            <mxPoint x="1520" y="670" as="sourcePoint" />
            <mxPoint x="680" y="670" as="targetPoint" />
          </mxGeometry>
        </mxCell>
        <mxCell id="2DmFidUWHQ-WV6GZ3Nr7-29" value="Send Order List with &#39;Read Marker&#39;,&lt;br&gt;&#39;Complaint Ans Marker&#39;, &#39;Order Name&#39;, &#39;Sender (Login)&#39;" style="html=1;verticalAlign=bottom;endArrow=block;curved=0;rounded=0;strokeColor=#457B9D;fontColor=#1D3557;fillColor=#A8DADC;" edge="1" parent="1">
          <mxGeometry width="80" relative="1" as="geometry">
            <mxPoint x="680" y="1000" as="sourcePoint" />
            <mxPoint x="400" y="1000" as="targetPoint" />
          </mxGeometry>
        </mxCell>
        <mxCell id="2DmFidUWHQ-WV6GZ3Nr7-30" value="Show Order List with &#39;Order Name&#39;, &#39;Sender (Login)&#39;&lt;br&gt;&amp;nbsp;(Mark Orders with true &#39;Read Marker&#39;&lt;br&gt;and true &#39;Complaint Ans Marker&#39; with &#39;Pale Red&#39;,&lt;br&gt;Orders with true &#39;Read Marker&#39; and false &lt;br&gt;&#39;Complaint Ans Marker&#39; with &#39;Light Gray&#39;,&lt;br&gt;Orders with false &#39;Read Marker&#39; and false&amp;nbsp;&lt;br style=&quot;border-color: var(--border-color);&quot;&gt;&#39;Complaint Ans Marker&#39; with &#39;Pale Cyan &#39;,&lt;br&gt;Orders with false &#39;Read Marker&#39; and true&amp;nbsp;&lt;br style=&quot;border-color: var(--border-color);&quot;&gt;&#39;Complaint Ans Marker&#39; with &#39;Red&#39;,)" style="html=1;verticalAlign=bottom;endArrow=block;curved=0;rounded=0;strokeColor=#457B9D;fontColor=#1D3557;fillColor=#A8DADC;" edge="1" parent="1">
          <mxGeometry width="80" relative="1" as="geometry">
            <mxPoint x="400" y="1120" as="sourcePoint" />
            <mxPoint x="120" y="1120" as="targetPoint" />
          </mxGeometry>
        </mxCell>
        <mxCell id="2DmFidUWHQ-WV6GZ3Nr7-34" value="One of List Items Selected" style="html=1;verticalAlign=bottom;endArrow=block;curved=0;rounded=0;strokeColor=#457B9D;fontColor=#1D3557;fillColor=#A8DADC;" edge="1" parent="1">
          <mxGeometry width="80" relative="1" as="geometry">
            <mxPoint x="120" y="1200" as="sourcePoint" />
            <mxPoint x="400" y="1200" as="targetPoint" />
          </mxGeometry>
        </mxCell>
        <mxCell id="2DmFidUWHQ-WV6GZ3Nr7-35" value="Show &#39;Detailed Order View&#39; Menu&lt;br&gt;with &#39;Order Name&#39;, &#39;Description&#39;, &#39;Sender (Login)&#39;,&lt;br&gt;&#39;Send Button&#39;, &#39;Challenge Button&#39;, &#39;View Document&#39;&amp;nbsp;" style="html=1;verticalAlign=bottom;endArrow=block;curved=0;rounded=0;strokeColor=#457B9D;fontColor=#1D3557;fillColor=#A8DADC;" edge="1" parent="1">
          <mxGeometry width="80" relative="1" as="geometry">
            <mxPoint x="400" y="1764" as="sourcePoint" />
            <mxPoint x="120" y="1764" as="targetPoint" />
          </mxGeometry>
        </mxCell>
        <mxCell id="2DmFidUWHQ-WV6GZ3Nr7-36" value="Send Request For &#39;Description&#39;&lt;br&gt;for selected order &amp;nbsp;" style="html=1;verticalAlign=bottom;endArrow=block;curved=0;rounded=0;strokeColor=#457B9D;fontColor=#1D3557;fillColor=#A8DADC;" edge="1" parent="1">
          <mxGeometry width="80" relative="1" as="geometry">
            <mxPoint x="400" y="1684" as="sourcePoint" />
            <mxPoint x="680" y="1684" as="targetPoint" />
          </mxGeometry>
        </mxCell>
        <mxCell id="2DmFidUWHQ-WV6GZ3Nr7-37" value="Send &#39;Description&#39;&amp;nbsp;for selected order &amp;nbsp;" style="html=1;verticalAlign=bottom;endArrow=block;curved=0;rounded=0;strokeColor=#457B9D;fontColor=#1D3557;fillColor=#A8DADC;" edge="1" parent="1">
          <mxGeometry width="80" relative="1" as="geometry">
            <mxPoint x="680" y="1724" as="sourcePoint" />
            <mxPoint x="400" y="1724" as="targetPoint" />
          </mxGeometry>
        </mxCell>
        <mxCell id="2DmFidUWHQ-WV6GZ3Nr7-41" value="" style="endArrow=none;dashed=1;html=1;rounded=0;strokeColor=#457B9D;fontColor=#1D3557;fillColor=#A8DADC;exitX=0.002;exitY=0.375;exitDx=0;exitDy=0;exitPerimeter=0;entryX=1;entryY=0.375;entryDx=0;entryDy=0;entryPerimeter=0;" edge="1" parent="1">
          <mxGeometry width="50" height="50" relative="1" as="geometry">
            <mxPoint x="81.29999999999995" y="1782" as="sourcePoint" />
            <mxPoint x="730" y="1782" as="targetPoint" />
          </mxGeometry>
        </mxCell>
        <mxCell id="2DmFidUWHQ-WV6GZ3Nr7-42" value="[Selected Order &#39;Complaint Ans Marker&#39; = true]" style="text;html=1;strokeColor=none;fillColor=none;align=center;verticalAlign=middle;whiteSpace=wrap;rounded=0;fontColor=#1D3557;" vertex="1" parent="1">
          <mxGeometry x="135" y="1790" width="190" height="50" as="geometry" />
        </mxCell>
        <mxCell id="2DmFidUWHQ-WV6GZ3Nr7-43" value="Show &#39;Detailed Order View&#39; Menu&lt;br&gt;with &#39;Order Name&#39;, &#39;Description&#39;, &#39;Sender (Login)&#39;,&lt;br&gt;&#39;Complaint Description&#39;,&amp;nbsp;&#39;Send Button&#39;, &lt;br&gt;&#39;Challenge Button&#39;, &#39;View Document&#39;&amp;nbsp;" style="html=1;verticalAlign=bottom;endArrow=block;curved=0;rounded=0;strokeColor=#457B9D;fontColor=#1D3557;fillColor=#A8DADC;" edge="1" parent="1">
          <mxGeometry width="80" relative="1" as="geometry">
            <mxPoint x="400" y="1910" as="sourcePoint" />
            <mxPoint x="120" y="1910" as="targetPoint" />
          </mxGeometry>
        </mxCell>
        <mxCell id="2DmFidUWHQ-WV6GZ3Nr7-44" value="Send Request For &#39;Description&#39; and&lt;br&gt;&#39;Complaint Description&#39; for selected order &amp;nbsp;" style="html=1;verticalAlign=bottom;endArrow=block;curved=0;rounded=0;strokeColor=#457B9D;fontColor=#1D3557;fillColor=#A8DADC;" edge="1" parent="1">
          <mxGeometry width="80" relative="1" as="geometry">
            <mxPoint x="400" y="1830" as="sourcePoint" />
            <mxPoint x="680" y="1830" as="targetPoint" />
          </mxGeometry>
        </mxCell>
        <mxCell id="2DmFidUWHQ-WV6GZ3Nr7-45" value="Send &#39;Description&#39; and &#39;Complaint Description&#39;&lt;br&gt;&amp;nbsp;for selected order &amp;nbsp;" style="html=1;verticalAlign=bottom;endArrow=block;curved=0;rounded=0;strokeColor=#457B9D;fontColor=#1D3557;fillColor=#A8DADC;" edge="1" parent="1">
          <mxGeometry width="80" relative="1" as="geometry">
            <mxPoint x="680" y="1870" as="sourcePoint" />
            <mxPoint x="400" y="1870" as="targetPoint" />
          </mxGeometry>
        </mxCell>
        <mxCell id="2DmFidUWHQ-WV6GZ3Nr7-47" value="&#39;Send Button&#39; Pressed" style="html=1;verticalAlign=bottom;endArrow=block;curved=0;rounded=0;strokeColor=#457B9D;fontColor=#1D3557;fillColor=#A8DADC;" edge="1" parent="1">
          <mxGeometry width="80" relative="1" as="geometry">
            <mxPoint x="120" y="2062" as="sourcePoint" />
            <mxPoint x="400" y="2062" as="targetPoint" />
          </mxGeometry>
        </mxCell>
        <mxCell id="2DmFidUWHQ-WV6GZ3Nr7-48" value="Send Request For Supply list for Current D.P." style="html=1;verticalAlign=bottom;endArrow=block;curved=0;rounded=0;strokeColor=#457B9D;fontColor=#1D3557;fillColor=#A8DADC;" edge="1" parent="1">
          <mxGeometry width="80" relative="1" as="geometry">
            <mxPoint x="400" y="2102" as="sourcePoint" />
            <mxPoint x="680" y="2102" as="targetPoint" />
          </mxGeometry>
        </mxCell>
        <mxCell id="2DmFidUWHQ-WV6GZ3Nr7-49" value="Get Supply List &amp;nbsp;with &#39;email&#39; and &#39;Name&#39; &lt;br&gt;For Current D.P. Department&lt;br&gt;(for Supply with true &#39;Working Marker&#39; only)" style="html=1;verticalAlign=bottom;endArrow=block;curved=0;rounded=0;strokeColor=#457B9D;fontColor=#1D3557;fillColor=#A8DADC;" edge="1" parent="1">
          <mxGeometry width="80" relative="1" as="geometry">
            <mxPoint x="680" y="2142" as="sourcePoint" />
            <mxPoint x="1240" y="2142" as="targetPoint" />
          </mxGeometry>
        </mxCell>
        <mxCell id="2DmFidUWHQ-WV6GZ3Nr7-50" value="Form Supply list with &lt;br&gt;&#39;email&#39; and &#39;Name&#39;" style="html=1;verticalAlign=bottom;endArrow=block;curved=0;rounded=0;strokeColor=#457B9D;fontColor=#1D3557;fillColor=#A8DADC;" edge="1" parent="1">
          <mxGeometry x="0.0769" width="80" relative="1" as="geometry">
            <mxPoint x="1240" y="2162" as="sourcePoint" />
            <mxPoint x="1240" y="2262" as="targetPoint" />
            <Array as="points">
              <mxPoint x="1320" y="2162" />
              <mxPoint x="1320" y="2262" />
            </Array>
            <mxPoint as="offset" />
          </mxGeometry>
        </mxCell>
        <mxCell id="2DmFidUWHQ-WV6GZ3Nr7-51" value="Send Supply List &amp;nbsp;with &#39;email&#39; and &#39;Name&#39; &lt;br&gt;For Current D.P. Department&lt;br&gt;(for Supply with true &#39;Working Marker&#39; only)" style="html=1;verticalAlign=bottom;endArrow=block;curved=0;rounded=0;strokeColor=#457B9D;fontColor=#1D3557;fillColor=#A8DADC;" edge="1" parent="1">
          <mxGeometry width="80" relative="1" as="geometry">
            <mxPoint x="1240" y="2284" as="sourcePoint" />
            <mxPoint x="680" y="2284" as="targetPoint" />
          </mxGeometry>
        </mxCell>
        <mxCell id="2DmFidUWHQ-WV6GZ3Nr7-52" value="Order&lt;br&gt;Modifying&lt;br&gt;Trans-action&amp;nbsp;" style="ellipse;shape=umlControl;whiteSpace=wrap;html=1;strokeColor=#457B9D;fontColor=#1D3557;fillColor=#A8DADC;" vertex="1" parent="1">
          <mxGeometry x="1766" y="65" width="70" height="80" as="geometry" />
        </mxCell>
        <mxCell id="2DmFidUWHQ-WV6GZ3Nr7-53" value="" style="endArrow=none;dashed=1;html=1;dashPattern=1 3;strokeWidth=2;rounded=0;strokeColor=#457B9D;fontColor=#1D3557;fillColor=#A8DADC;entryX=0.5;entryY=0.986;entryDx=0;entryDy=0;entryPerimeter=0;" edge="1" parent="1" target="2DmFidUWHQ-WV6GZ3Nr7-52" source="2DmFidUWHQ-WV6GZ3Nr7-141">
          <mxGeometry width="50" height="50" relative="1" as="geometry">
            <mxPoint x="1801" y="4480" as="sourcePoint" />
            <mxPoint x="1800" y="155" as="targetPoint" />
          </mxGeometry>
        </mxCell>
        <mxCell id="2DmFidUWHQ-WV6GZ3Nr7-54" value="Send Request to Change &#39;Read Marker&#39;&amp;nbsp;&lt;br&gt;with&amp;nbsp;selected item &#39;Name&#39;" style="html=1;verticalAlign=bottom;endArrow=block;curved=0;rounded=0;strokeColor=#457B9D;fontColor=#1D3557;fillColor=#A8DADC;" edge="1" parent="1" source="2DmFidUWHQ-WV6GZ3Nr7-135">
          <mxGeometry width="80" relative="1" as="geometry">
            <mxPoint x="400" y="1240" as="sourcePoint" />
            <mxPoint x="680" y="1240" as="targetPoint" />
          </mxGeometry>
        </mxCell>
        <mxCell id="2DmFidUWHQ-WV6GZ3Nr7-55" value="Change &#39;Read Marker&#39; to true&lt;br&gt;for Order with received &#39;Name&#39;" style="html=1;verticalAlign=bottom;endArrow=block;curved=0;rounded=0;strokeColor=#457B9D;fontColor=#1D3557;fillColor=#A8DADC;" edge="1" parent="1">
          <mxGeometry width="80" relative="1" as="geometry">
            <mxPoint x="680" y="1310" as="sourcePoint" />
            <mxPoint x="680" y="1410" as="targetPoint" />
            <Array as="points">
              <mxPoint x="760" y="1310" />
              <mxPoint x="760" y="1410" />
            </Array>
          </mxGeometry>
        </mxCell>
        <mxCell id="2DmFidUWHQ-WV6GZ3Nr7-58" value="Change &#39;Read Marker&#39; in DB&lt;br&gt;for received &#39;Name&#39;&lt;br&gt;&amp;nbsp;(for link to file with received &#39;Name&#39;)" style="html=1;verticalAlign=bottom;endArrow=block;curved=0;rounded=0;strokeColor=#457B9D;fontColor=#1D3557;fillColor=#A8DADC;" edge="1" parent="1">
          <mxGeometry width="80" relative="1" as="geometry">
            <mxPoint x="680" y="1473" as="sourcePoint" />
            <mxPoint x="1800" y="1473" as="targetPoint" />
          </mxGeometry>
        </mxCell>
        <mxCell id="2DmFidUWHQ-WV6GZ3Nr7-59" value="Change &#39;Read Marker&#39;" style="html=1;verticalAlign=bottom;endArrow=block;curved=0;rounded=0;strokeColor=#457B9D;fontColor=#1D3557;fillColor=#A8DADC;" edge="1" parent="1">
          <mxGeometry width="80" relative="1" as="geometry">
            <mxPoint x="1800" y="1534" as="sourcePoint" />
            <mxPoint x="1520" y="1534" as="targetPoint" />
          </mxGeometry>
        </mxCell>
        <mxCell id="2DmFidUWHQ-WV6GZ3Nr7-60" value="Send Transaction Result" style="html=1;verticalAlign=bottom;endArrow=block;curved=0;rounded=0;strokeColor=#457B9D;fontColor=#1D3557;fillColor=#A8DADC;" edge="1" parent="1">
          <mxGeometry width="80" relative="1" as="geometry">
            <mxPoint x="1800" y="1574" as="sourcePoint" />
            <mxPoint x="679" y="1574" as="targetPoint" />
          </mxGeometry>
        </mxCell>
        <mxCell id="2DmFidUWHQ-WV6GZ3Nr7-61" value="Opt" style="shape=umlFrame;whiteSpace=wrap;html=1;pointerEvents=0;strokeColor=#457B9D;fontColor=#1D3557;fillColor=#A8DADC;" vertex="1" parent="1">
          <mxGeometry x="540" y="1264" width="1290" height="350" as="geometry" />
        </mxCell>
        <mxCell id="2DmFidUWHQ-WV6GZ3Nr7-62" value="[If &#39;Read Marker&#39; was false]" style="text;html=1;strokeColor=none;fillColor=none;align=center;verticalAlign=middle;whiteSpace=wrap;rounded=0;fontColor=#1D3557;" vertex="1" parent="1">
          <mxGeometry x="585" y="1264" width="190" height="50" as="geometry" />
        </mxCell>
        <mxCell id="2DmFidUWHQ-WV6GZ3Nr7-63" value="Loop" style="shape=umlFrame;whiteSpace=wrap;html=1;pointerEvents=0;strokeColor=#457B9D;fontColor=#1D3557;fillColor=#A8DADC;" vertex="1" parent="1">
          <mxGeometry x="540" y="1424" width="1290" height="190" as="geometry" />
        </mxCell>
        <mxCell id="2DmFidUWHQ-WV6GZ3Nr7-64" value="[While Transaction Fails]" style="text;html=1;strokeColor=none;fillColor=none;align=center;verticalAlign=middle;whiteSpace=wrap;rounded=0;fontColor=#1D3557;" vertex="1" parent="1">
          <mxGeometry x="580" y="1424" width="190" height="50" as="geometry" />
        </mxCell>
        <mxCell id="2DmFidUWHQ-WV6GZ3Nr7-65" value="Send Supply List &amp;nbsp;with &#39;email&#39; and &#39;Name&#39; " style="html=1;verticalAlign=bottom;endArrow=block;curved=0;rounded=0;strokeColor=#457B9D;fontColor=#1D3557;fillColor=#A8DADC;" edge="1" parent="1">
          <mxGeometry width="80" relative="1" as="geometry">
            <mxPoint x="680" y="2320" as="sourcePoint" />
            <mxPoint x="400" y="2320" as="targetPoint" />
          </mxGeometry>
        </mxCell>
        <mxCell id="2DmFidUWHQ-WV6GZ3Nr7-66" value="Show Supply List &amp;nbsp;with &#39;email&#39; and &#39;Name&#39;" style="html=1;verticalAlign=bottom;endArrow=block;curved=0;rounded=0;strokeColor=#457B9D;fontColor=#1D3557;fillColor=#A8DADC;" edge="1" parent="1">
          <mxGeometry width="80" relative="1" as="geometry">
            <mxPoint x="400" y="2360" as="sourcePoint" />
            <mxPoint x="120" y="2360" as="targetPoint" />
            <mxPoint as="offset" />
          </mxGeometry>
        </mxCell>
        <mxCell id="2DmFidUWHQ-WV6GZ3Nr7-67" value="One of the List Items Selected" style="html=1;verticalAlign=bottom;endArrow=block;curved=0;rounded=0;strokeColor=#457B9D;fontColor=#1D3557;fillColor=#A8DADC;" edge="1" parent="1">
          <mxGeometry width="80" relative="1" as="geometry">
            <mxPoint x="120" y="2400" as="sourcePoint" />
            <mxPoint x="400" y="2400" as="targetPoint" />
          </mxGeometry>
        </mxCell>
        <mxCell id="2DmFidUWHQ-WV6GZ3Nr7-68" value="Show &#39;Send&#39; Button" style="html=1;verticalAlign=bottom;endArrow=block;curved=0;rounded=0;strokeColor=#457B9D;fontColor=#1D3557;fillColor=#A8DADC;" edge="1" parent="1">
          <mxGeometry width="80" relative="1" as="geometry">
            <mxPoint x="400" y="2440" as="sourcePoint" />
            <mxPoint x="120" y="2440" as="targetPoint" />
            <mxPoint as="offset" />
          </mxGeometry>
        </mxCell>
        <mxCell id="2DmFidUWHQ-WV6GZ3Nr7-69" value="&#39;Send&#39; Button Pressed" style="html=1;verticalAlign=bottom;endArrow=block;curved=0;rounded=0;strokeColor=#457B9D;fontColor=#1D3557;fillColor=#A8DADC;" edge="1" parent="1">
          <mxGeometry width="80" relative="1" as="geometry">
            <mxPoint x="120" y="2480" as="sourcePoint" />
            <mxPoint x="400" y="2480" as="targetPoint" />
          </mxGeometry>
        </mxCell>
        <mxCell id="2DmFidUWHQ-WV6GZ3Nr7-70" value="Send Request to Send Order with&amp;nbsp;&lt;br&gt;Order &#39;Name&#39;, Supply &#39;email&#39;, D.P. &#39;Login&#39;&amp;nbsp;" style="html=1;verticalAlign=bottom;endArrow=block;curved=0;rounded=0;strokeColor=#457B9D;fontColor=#1D3557;fillColor=#A8DADC;" edge="1" parent="1">
          <mxGeometry width="80" relative="1" as="geometry">
            <mxPoint x="399" y="2520" as="sourcePoint" />
            <mxPoint x="679" y="2520" as="targetPoint" />
          </mxGeometry>
        </mxCell>
        <mxCell id="2DmFidUWHQ-WV6GZ3Nr7-71" value="Send Order &#39;Name&#39;, Order &#39;Link&#39;, Supply &#39;email&#39;,&lt;br&gt;D.P. &#39;Login&#39;, Department &#39;Name&#39;, &#39;Description&#39;&lt;br&gt;D.P. &#39;Nickname&#39;" style="html=1;verticalAlign=bottom;endArrow=block;curved=0;rounded=0;strokeColor=#457B9D;fontColor=#1D3557;fillColor=#A8DADC;" edge="1" parent="1">
          <mxGeometry width="80" relative="1" as="geometry">
            <mxPoint x="680" y="2760" as="sourcePoint" />
            <mxPoint x="2081" y="2760" as="targetPoint" />
          </mxGeometry>
        </mxCell>
        <mxCell id="2DmFidUWHQ-WV6GZ3Nr7-72" value="Change &#39;Sent Marker&#39; in DB&lt;br&gt;for received &#39;Name&#39;&lt;br&gt;&amp;nbsp;(for link to file with received &#39;Name&#39;)" style="html=1;verticalAlign=bottom;endArrow=block;curved=0;rounded=0;strokeColor=#457B9D;fontColor=#1D3557;fillColor=#A8DADC;" edge="1" parent="1">
          <mxGeometry width="80" relative="1" as="geometry">
            <mxPoint x="682" y="2580" as="sourcePoint" />
            <mxPoint x="1802" y="2580" as="targetPoint" />
            <mxPoint as="offset" />
          </mxGeometry>
        </mxCell>
        <mxCell id="2DmFidUWHQ-WV6GZ3Nr7-73" value="Send Transaction Result" style="html=1;verticalAlign=bottom;endArrow=block;curved=0;rounded=0;strokeColor=#457B9D;fontColor=#1D3557;fillColor=#A8DADC;" edge="1" parent="1">
          <mxGeometry width="80" relative="1" as="geometry">
            <mxPoint x="1802" y="2681" as="sourcePoint" />
            <mxPoint x="681" y="2681" as="targetPoint" />
          </mxGeometry>
        </mxCell>
        <mxCell id="2DmFidUWHQ-WV6GZ3Nr7-74" value="Loop" style="shape=umlFrame;whiteSpace=wrap;html=1;pointerEvents=0;strokeColor=#457B9D;fontColor=#1D3557;fillColor=#A8DADC;" vertex="1" parent="1">
          <mxGeometry x="580" y="2530" width="1290" height="190" as="geometry" />
        </mxCell>
        <mxCell id="2DmFidUWHQ-WV6GZ3Nr7-75" value="[While Transaction Fails]" style="text;html=1;strokeColor=none;fillColor=none;align=center;verticalAlign=middle;whiteSpace=wrap;rounded=0;fontColor=#1D3557;" vertex="1" parent="1">
          <mxGeometry x="620" y="2530" width="190" height="50" as="geometry" />
        </mxCell>
        <mxCell id="2DmFidUWHQ-WV6GZ3Nr7-76" value="Change &#39;Sent Marker&#39;" style="html=1;verticalAlign=bottom;endArrow=block;curved=0;rounded=0;strokeColor=#457B9D;fontColor=#1D3557;fillColor=#A8DADC;" edge="1" parent="1">
          <mxGeometry width="80" relative="1" as="geometry">
            <mxPoint x="1800" y="2640" as="sourcePoint" />
            <mxPoint x="1520" y="2640" as="targetPoint" />
          </mxGeometry>
        </mxCell>
        <mxCell id="2DmFidUWHQ-WV6GZ3Nr7-77" value="&#39;Send&#39; Command was Sent&lt;br&gt;with all the Info" style="html=1;verticalAlign=bottom;endArrow=block;curved=0;rounded=0;strokeColor=#457B9D;fontColor=#1D3557;fillColor=#A8DADC;" edge="1" parent="1">
          <mxGeometry width="80" relative="1" as="geometry">
            <mxPoint x="2080" y="2800" as="sourcePoint" />
            <mxPoint x="2360" y="2800" as="targetPoint" />
          </mxGeometry>
        </mxCell>
        <mxCell id="2DmFidUWHQ-WV6GZ3Nr7-78" value="Get Order File By &#39;Link&#39;" style="html=1;verticalAlign=bottom;endArrow=block;curved=0;rounded=0;strokeColor=#457B9D;fontColor=#1D3557;fillColor=#A8DADC;" edge="1" parent="1">
          <mxGeometry width="80" relative="1" as="geometry">
            <mxPoint x="2360" y="2840" as="sourcePoint" />
            <mxPoint x="960" y="2840" as="targetPoint" />
          </mxGeometry>
        </mxCell>
        <mxCell id="2DmFidUWHQ-WV6GZ3Nr7-79" value="Send Requested File" style="html=1;verticalAlign=bottom;endArrow=block;curved=0;rounded=0;strokeColor=#457B9D;fontColor=#1D3557;fillColor=#A8DADC;" edge="1" parent="1">
          <mxGeometry width="80" relative="1" as="geometry">
            <mxPoint x="960" y="2880" as="sourcePoint" />
            <mxPoint x="2360" y="2880" as="targetPoint" />
          </mxGeometry>
        </mxCell>
        <mxCell id="2DmFidUWHQ-WV6GZ3Nr7-80" value="Send email to Supply with&lt;br&gt;Specified &#39;email&#39; with Theme: New + &#39;Order.Name&#39; + &lt;br&gt;+ From + &#39;Department.Name&#39; +&lt;br&gt;+ &quot;(&quot; + &#39;D.P..Nickname&#39; + &quot;)&quot;&lt;br&gt;Content: &#39;Description&#39;&lt;br&gt;Attachment: &#39;Order File&#39;" style="html=1;verticalAlign=bottom;endArrow=block;curved=0;rounded=0;strokeColor=#457B9D;fontColor=#1D3557;fillColor=#A8DADC;" edge="1" parent="1">
          <mxGeometry width="80" relative="1" as="geometry">
            <mxPoint x="2360" y="2970" as="sourcePoint" />
            <mxPoint x="2640" y="2970" as="targetPoint" />
            <mxPoint as="offset" />
          </mxGeometry>
        </mxCell>
        <mxCell id="2DmFidUWHQ-WV6GZ3Nr7-82" value="email" style="shape=umlBoundary;whiteSpace=wrap;html=1;strokeColor=#457B9D;fontColor=#1D3557;fillColor=#A8DADC;" vertex="1" parent="1">
          <mxGeometry x="2600" y="90" width="70" height="55" as="geometry" />
        </mxCell>
        <mxCell id="2DmFidUWHQ-WV6GZ3Nr7-83" value="" style="endArrow=none;dashed=1;html=1;dashPattern=1 3;strokeWidth=2;rounded=0;strokeColor=#457B9D;fontColor=#1D3557;fillColor=#A8DADC;entryX=0.6;entryY=0.964;entryDx=0;entryDy=0;entryPerimeter=0;" edge="1" parent="1" target="2DmFidUWHQ-WV6GZ3Nr7-82">
          <mxGeometry width="50" height="50" relative="1" as="geometry">
            <mxPoint x="2642" y="4480" as="sourcePoint" />
            <mxPoint x="2640.5" y="150" as="targetPoint" />
          </mxGeometry>
        </mxCell>
        <mxCell id="2DmFidUWHQ-WV6GZ3Nr7-85" value="Add Task to Self to make changes to &lt;br&gt;Order with&amp;nbsp;Link - &#39;Order.Link&#39;,&lt;br&gt;Change: &#39;Sent to (email)&#39; to Supply &#39;email&#39;,&lt;br&gt;&#39;Done by (Login)&#39; to D.P. &#39;Login&#39;,&amp;nbsp;&lt;br&gt;&#39;Done Order Marker&#39; to true" style="html=1;verticalAlign=bottom;endArrow=block;curved=0;rounded=0;strokeColor=#457B9D;fontColor=#1D3557;fillColor=#A8DADC;" edge="1" parent="1">
          <mxGeometry width="80" relative="1" as="geometry">
            <mxPoint x="2360" y="3020" as="sourcePoint" />
            <mxPoint x="2080" y="3020" as="targetPoint" />
          </mxGeometry>
        </mxCell>
        <mxCell id="2DmFidUWHQ-WV6GZ3Nr7-86" value="Apply Changes Command Sent&lt;br&gt;with all the Info" style="html=1;verticalAlign=bottom;endArrow=block;curved=0;rounded=0;strokeColor=#457B9D;fontColor=#1D3557;fillColor=#A8DADC;" edge="1" parent="1">
          <mxGeometry width="80" relative="1" as="geometry">
            <mxPoint x="2080" y="3120" as="sourcePoint" />
            <mxPoint x="2360" y="3120" as="targetPoint" />
          </mxGeometry>
        </mxCell>
        <mxCell id="2DmFidUWHQ-WV6GZ3Nr7-87" value="Send &#39;Task ID&#39; and Command to&lt;br&gt;Change&amp;nbsp;&#39;Sent to (email)&#39; to Supply &#39;email&#39;,&lt;br style=&quot;border-color: var(--border-color);&quot;&gt;&#39;Done by (Login)&#39; to D.P. &#39;Login&#39;,&amp;nbsp;&lt;br style=&quot;border-color: var(--border-color);&quot;&gt;&#39;Done Order Marker&#39; to true&lt;br&gt;for Order with Link - &#39;Order.Link&#39;&lt;br&gt;&amp;nbsp;" style="html=1;verticalAlign=bottom;endArrow=block;curved=0;rounded=0;strokeColor=#457B9D;fontColor=#1D3557;fillColor=#A8DADC;" edge="1" parent="1">
          <mxGeometry width="80" relative="1" as="geometry">
            <mxPoint x="2360" y="3240" as="sourcePoint" />
            <mxPoint x="1800" y="3240" as="targetPoint" />
          </mxGeometry>
        </mxCell>
        <mxCell id="2DmFidUWHQ-WV6GZ3Nr7-88" value="Change&amp;nbsp;&#39;Sent to (email)&#39; ,&amp;nbsp;&#39;Done by (Login)&#39;,&amp;nbsp;&lt;br style=&quot;border-color: var(--border-color);&quot;&gt;&#39;Done Order Marker&#39;&lt;br&gt;&amp;nbsp;" style="html=1;verticalAlign=bottom;endArrow=block;curved=0;rounded=0;strokeColor=#457B9D;fontColor=#1D3557;fillColor=#A8DADC;" edge="1" parent="1">
          <mxGeometry x="-0.0714" width="80" relative="1" as="geometry">
            <mxPoint x="1800" y="3280" as="sourcePoint" />
            <mxPoint x="1520" y="3280" as="targetPoint" />
            <mxPoint as="offset" />
          </mxGeometry>
        </mxCell>
        <mxCell id="2DmFidUWHQ-WV6GZ3Nr7-89" value="Send Transaction Result and &#39;Task ID&#39;" style="html=1;verticalAlign=bottom;endArrow=block;curved=0;rounded=0;strokeColor=#457B9D;fontColor=#1D3557;fillColor=#A8DADC;" edge="1" parent="1">
          <mxGeometry x="-0.0714" width="80" relative="1" as="geometry">
            <mxPoint x="1520" y="3340" as="sourcePoint" />
            <mxPoint x="2360" y="3340" as="targetPoint" />
            <mxPoint as="offset" />
          </mxGeometry>
        </mxCell>
        <mxCell id="2DmFidUWHQ-WV6GZ3Nr7-90" value="Request Task by &#39;Task ID&#39;" style="html=1;verticalAlign=bottom;endArrow=block;curved=0;rounded=0;strokeColor=#457B9D;fontColor=#1D3557;fillColor=#A8DADC;" edge="1" parent="1">
          <mxGeometry width="80" relative="1" as="geometry">
            <mxPoint x="2360" y="3440" as="sourcePoint" />
            <mxPoint x="2080" y="3440" as="targetPoint" />
          </mxGeometry>
        </mxCell>
        <mxCell id="2DmFidUWHQ-WV6GZ3Nr7-97" value="&#39;View Document&#39; Pressed" style="html=1;verticalAlign=bottom;endArrow=block;curved=0;rounded=0;strokeColor=#457B9D;fontColor=#1D3557;fillColor=#A8DADC;" edge="1" parent="1">
          <mxGeometry width="80" relative="1" as="geometry">
            <mxPoint x="120" y="3600" as="sourcePoint" />
            <mxPoint x="400" y="3600" as="targetPoint" />
          </mxGeometry>
        </mxCell>
        <mxCell id="2DmFidUWHQ-WV6GZ3Nr7-98" value="Send Request for selected Order File" style="html=1;verticalAlign=bottom;endArrow=block;curved=0;rounded=0;strokeColor=#457B9D;fontColor=#1D3557;fillColor=#A8DADC;" edge="1" parent="1">
          <mxGeometry width="80" relative="1" as="geometry">
            <mxPoint x="400" y="3640" as="sourcePoint" />
            <mxPoint x="680" y="3640" as="targetPoint" />
          </mxGeometry>
        </mxCell>
        <mxCell id="2DmFidUWHQ-WV6GZ3Nr7-99" value="Get File with Selected &#39;Name&#39;&lt;br&gt;(Link to File with Selected &#39;Name&#39;)" style="html=1;verticalAlign=bottom;endArrow=block;curved=0;rounded=0;strokeColor=#457B9D;fontColor=#1D3557;fillColor=#A8DADC;" edge="1" parent="1">
          <mxGeometry width="80" relative="1" as="geometry">
            <mxPoint x="680" y="3680" as="sourcePoint" />
            <mxPoint x="960" y="3680" as="targetPoint" />
          </mxGeometry>
        </mxCell>
        <mxCell id="2DmFidUWHQ-WV6GZ3Nr7-100" value="Send File with Selected &#39;Name&#39;" style="html=1;verticalAlign=bottom;endArrow=block;curved=0;rounded=0;strokeColor=#457B9D;fontColor=#1D3557;fillColor=#A8DADC;" edge="1" parent="1">
          <mxGeometry width="80" relative="1" as="geometry">
            <mxPoint x="960" y="3720" as="sourcePoint" />
            <mxPoint x="680" y="3720" as="targetPoint" />
          </mxGeometry>
        </mxCell>
        <mxCell id="2DmFidUWHQ-WV6GZ3Nr7-101" value="Send Requested File" style="html=1;verticalAlign=bottom;endArrow=block;curved=0;rounded=0;strokeColor=#457B9D;fontColor=#1D3557;fillColor=#A8DADC;" edge="1" parent="1">
          <mxGeometry width="80" relative="1" as="geometry">
            <mxPoint x="680" y="3760" as="sourcePoint" />
            <mxPoint x="400" y="3760" as="targetPoint" />
          </mxGeometry>
        </mxCell>
        <mxCell id="2DmFidUWHQ-WV6GZ3Nr7-102" value="Show Order in View Only Mode" style="html=1;verticalAlign=bottom;endArrow=block;curved=0;rounded=0;strokeColor=#457B9D;fontColor=#1D3557;fillColor=#A8DADC;" edge="1" parent="1">
          <mxGeometry width="80" relative="1" as="geometry">
            <mxPoint x="400" y="3800" as="sourcePoint" />
            <mxPoint x="120" y="3800" as="targetPoint" />
            <mxPoint as="offset" />
          </mxGeometry>
        </mxCell>
        <mxCell id="2DmFidUWHQ-WV6GZ3Nr7-106" value="&#39;Challenge Button&#39; Pressed" style="html=1;verticalAlign=bottom;endArrow=block;curved=0;rounded=0;strokeColor=#457B9D;fontColor=#1D3557;fillColor=#A8DADC;" edge="1" parent="1">
          <mxGeometry width="80" relative="1" as="geometry">
            <mxPoint x="120" y="3960" as="sourcePoint" />
            <mxPoint x="400" y="3960" as="targetPoint" />
          </mxGeometry>
        </mxCell>
        <mxCell id="2DmFidUWHQ-WV6GZ3Nr7-107" value="Show &#39;Complaint&#39; Input Field" style="html=1;verticalAlign=bottom;endArrow=block;curved=0;rounded=0;strokeColor=#457B9D;fontColor=#1D3557;fillColor=#A8DADC;" edge="1" parent="1">
          <mxGeometry width="80" relative="1" as="geometry">
            <mxPoint x="400" y="4000" as="sourcePoint" />
            <mxPoint x="120" y="4000" as="targetPoint" />
          </mxGeometry>
        </mxCell>
        <mxCell id="2DmFidUWHQ-WV6GZ3Nr7-108" value="Input &#39;Complaint&#39; and&lt;br&gt;End Editing" style="html=1;verticalAlign=bottom;endArrow=block;curved=0;rounded=0;strokeColor=#457B9D;fontColor=#1D3557;fillColor=#A8DADC;" edge="1" parent="1">
          <mxGeometry width="80" relative="1" as="geometry">
            <mxPoint x="120" y="4040" as="sourcePoint" />
            <mxPoint x="400" y="4040" as="targetPoint" />
            <mxPoint as="offset" />
          </mxGeometry>
        </mxCell>
        <mxCell id="2DmFidUWHQ-WV6GZ3Nr7-109" value="Show &#39;Send&#39; Button" style="html=1;verticalAlign=bottom;endArrow=block;curved=0;rounded=0;strokeColor=#457B9D;fontColor=#1D3557;fillColor=#A8DADC;" edge="1" parent="1">
          <mxGeometry width="80" relative="1" as="geometry">
            <mxPoint x="400" y="4080" as="sourcePoint" />
            <mxPoint x="120" y="4080" as="targetPoint" />
          </mxGeometry>
        </mxCell>
        <mxCell id="2DmFidUWHQ-WV6GZ3Nr7-110" value="&#39;Send&#39; Button Pressed" style="html=1;verticalAlign=bottom;endArrow=block;curved=0;rounded=0;strokeColor=#457B9D;fontColor=#1D3557;fillColor=#A8DADC;" edge="1" parent="1">
          <mxGeometry width="80" relative="1" as="geometry">
            <mxPoint x="120" y="4120" as="sourcePoint" />
            <mxPoint x="400" y="4120" as="targetPoint" />
          </mxGeometry>
        </mxCell>
        <mxCell id="2DmFidUWHQ-WV6GZ3Nr7-111" value="Send Request to Send Complaint to Order With&lt;br&gt;&#39;Complaint&#39;, selected Order &#39;Name&#39;, D.P. &#39;Login&#39;" style="html=1;verticalAlign=bottom;endArrow=block;curved=0;rounded=0;strokeColor=#457B9D;fontColor=#1D3557;fillColor=#A8DADC;" edge="1" parent="1">
          <mxGeometry width="80" relative="1" as="geometry">
            <mxPoint x="400" y="4160" as="sourcePoint" />
            <mxPoint x="680" y="4160" as="targetPoint" />
          </mxGeometry>
        </mxCell>
        <mxCell id="2DmFidUWHQ-WV6GZ3Nr7-112" value="Change &#39;Order.Complaint_Description&#39; by appending &#39;Separator&#39; with login and date&lt;br&gt;&amp;nbsp;and received &#39;Complaint&#39;, &#39;Order.Bad_Order&#39; to true, &#39;Order.Complaint_by(Login)&#39; &lt;br&gt;to received D.P. &#39;Login&#39;,&amp;nbsp;&#39;Order.Read_Marker&#39; to false,&amp;nbsp;for Order with received &#39;Name&#39;&lt;br style=&quot;border-color: var(--border-color);&quot;&gt;&amp;nbsp;(for link to file with received &#39;Name&#39;)" style="html=1;verticalAlign=bottom;endArrow=block;curved=0;rounded=0;strokeColor=#457B9D;fontColor=#1D3557;fillColor=#A8DADC;" edge="1" parent="1">
          <mxGeometry width="80" relative="1" as="geometry">
            <mxPoint x="680" y="4239" as="sourcePoint" />
            <mxPoint x="1800" y="4239" as="targetPoint" />
          </mxGeometry>
        </mxCell>
        <mxCell id="2DmFidUWHQ-WV6GZ3Nr7-113" value="Change &#39;Read Marker&#39;, &#39;Complaint Description&#39;&lt;br&gt;&#39;Complaint by (Login)&#39;, &#39;Bad Order Marker&#39;" style="html=1;verticalAlign=bottom;endArrow=block;curved=0;rounded=0;strokeColor=#457B9D;fontColor=#1D3557;fillColor=#A8DADC;" edge="1" parent="1">
          <mxGeometry width="80" relative="1" as="geometry">
            <mxPoint x="1800.5" y="4279" as="sourcePoint" />
            <mxPoint x="1520.5" y="4279" as="targetPoint" />
          </mxGeometry>
        </mxCell>
        <mxCell id="2DmFidUWHQ-WV6GZ3Nr7-114" value="Send Transaction Result" style="html=1;verticalAlign=bottom;endArrow=block;curved=0;rounded=0;strokeColor=#457B9D;fontColor=#1D3557;fillColor=#A8DADC;" edge="1" parent="1">
          <mxGeometry width="80" relative="1" as="geometry">
            <mxPoint x="1800.5" y="4319" as="sourcePoint" />
            <mxPoint x="679.5" y="4319" as="targetPoint" />
          </mxGeometry>
        </mxCell>
        <mxCell id="2DmFidUWHQ-WV6GZ3Nr7-121" value="" style="endArrow=none;dashed=1;html=1;dashPattern=1 3;strokeWidth=2;rounded=0;strokeColor=#457B9D;fontColor=#1D3557;fillColor=#A8DADC;entryX=0.557;entryY=1.055;entryDx=0;entryDy=0;entryPerimeter=0;" edge="1" parent="1" source="2DmFidUWHQ-WV6GZ3Nr7-135" target="2DmFidUWHQ-WV6GZ3Nr7-119">
          <mxGeometry width="50" height="50" relative="1" as="geometry">
            <mxPoint x="400" y="4480" as="sourcePoint" />
            <mxPoint x="399" y="143" as="targetPoint" />
          </mxGeometry>
        </mxCell>
        <mxCell id="2DmFidUWHQ-WV6GZ3Nr7-119" value="" style="html=1;points=[[0,0,0,0,5],[0,1,0,0,-5],[1,0,0,0,5],[1,1,0,0,-5]];perimeter=orthogonalPerimeter;outlineConnect=0;targetShapes=umlLifeline;portConstraint=eastwest;newEdgeStyle={&quot;curved&quot;:0,&quot;rounded&quot;:0};strokeColor=#457B9D;fontColor=#1D3557;fillColor=#A8DADC;" vertex="1" parent="1">
          <mxGeometry x="395" y="240" width="10" height="759" as="geometry" />
        </mxCell>
        <mxCell id="2DmFidUWHQ-WV6GZ3Nr7-123" value="" style="endArrow=none;dashed=1;html=1;dashPattern=1 3;strokeWidth=2;rounded=0;strokeColor=#457B9D;fontColor=#1D3557;fillColor=#A8DADC;entryX=0.5;entryY=0.5;entryDx=0;entryDy=0;entryPerimeter=0;" edge="1" parent="1" source="2DmFidUWHQ-WV6GZ3Nr7-133" target="2DmFidUWHQ-WV6GZ3Nr7-122">
          <mxGeometry width="50" height="50" relative="1" as="geometry">
            <mxPoint x="120" y="4481" as="sourcePoint" />
            <mxPoint x="120" y="110" as="targetPoint" />
          </mxGeometry>
        </mxCell>
        <mxCell id="2DmFidUWHQ-WV6GZ3Nr7-122" value="" style="html=1;points=[[0,0,0,0,5],[0,1,0,0,-5],[1,0,0,0,5],[1,1,0,0,-5]];perimeter=orthogonalPerimeter;outlineConnect=0;targetShapes=umlLifeline;portConstraint=eastwest;newEdgeStyle={&quot;curved&quot;:0,&quot;rounded&quot;:0};strokeColor=#457B9D;fontColor=#1D3557;fillColor=#A8DADC;" vertex="1" parent="1">
          <mxGeometry x="115" y="177" width="10" height="34" as="geometry" />
        </mxCell>
        <mxCell id="2DmFidUWHQ-WV6GZ3Nr7-125" value="" style="endArrow=none;dashed=1;html=1;dashPattern=1 3;strokeWidth=2;rounded=0;strokeColor=#457B9D;fontColor=#1D3557;fillColor=#A8DADC;entryX=0.5;entryY=0.986;entryDx=0;entryDy=0;entryPerimeter=0;" edge="1" parent="1" source="2DmFidUWHQ-WV6GZ3Nr7-129" target="2DmFidUWHQ-WV6GZ3Nr7-124">
          <mxGeometry width="50" height="50" relative="1" as="geometry">
            <mxPoint x="680" y="4480" as="sourcePoint" />
            <mxPoint x="680" y="144" as="targetPoint" />
          </mxGeometry>
        </mxCell>
        <mxCell id="2DmFidUWHQ-WV6GZ3Nr7-124" value="" style="html=1;points=[[0,0,0,0,5],[0,1,0,0,-5],[1,0,0,0,5],[1,1,0,0,-5]];perimeter=orthogonalPerimeter;outlineConnect=0;targetShapes=umlLifeline;portConstraint=eastwest;newEdgeStyle={&quot;curved&quot;:0,&quot;rounded&quot;:0};strokeColor=#457B9D;fontColor=#1D3557;fillColor=#A8DADC;" vertex="1" parent="1">
          <mxGeometry x="675" y="520" width="10" height="147" as="geometry" />
        </mxCell>
        <mxCell id="2DmFidUWHQ-WV6GZ3Nr7-126" value="" style="endArrow=none;dashed=1;html=1;dashPattern=1 3;strokeWidth=2;rounded=0;strokeColor=#457B9D;fontColor=#1D3557;fillColor=#A8DADC;entryX=0.5;entryY=1;entryDx=0;entryDy=0;" edge="1" parent="1" source="2DmFidUWHQ-WV6GZ3Nr7-195" target="2DmFidUWHQ-WV6GZ3Nr7-127">
          <mxGeometry width="50" height="50" relative="1" as="geometry">
            <mxPoint x="1520" y="4480" as="sourcePoint" />
            <mxPoint x="1520" y="140" as="targetPoint" />
          </mxGeometry>
        </mxCell>
        <mxCell id="2DmFidUWHQ-WV6GZ3Nr7-127" value="" style="html=1;points=[[0,0,0,0,5],[0,1,0,0,-5],[1,0,0,0,5],[1,1,0,0,-5]];perimeter=orthogonalPerimeter;outlineConnect=0;targetShapes=umlLifeline;portConstraint=eastwest;newEdgeStyle={&quot;curved&quot;:0,&quot;rounded&quot;:0};strokeColor=#457B9D;fontColor=#1D3557;fillColor=#A8DADC;" vertex="1" parent="1">
          <mxGeometry x="1513" y="542" width="10" height="96" as="geometry" />
        </mxCell>
        <mxCell id="2DmFidUWHQ-WV6GZ3Nr7-128" value="" style="endArrow=none;dashed=1;html=1;dashPattern=1 3;strokeWidth=2;rounded=0;strokeColor=#457B9D;fontColor=#1D3557;fillColor=#A8DADC;entryX=0.5;entryY=0.986;entryDx=0;entryDy=0;entryPerimeter=0;" edge="1" parent="1" source="2DmFidUWHQ-WV6GZ3Nr7-131" target="2DmFidUWHQ-WV6GZ3Nr7-129">
          <mxGeometry width="50" height="50" relative="1" as="geometry">
            <mxPoint x="680" y="4480" as="sourcePoint" />
            <mxPoint x="680" y="665" as="targetPoint" />
          </mxGeometry>
        </mxCell>
        <mxCell id="2DmFidUWHQ-WV6GZ3Nr7-129" value="" style="html=1;points=[[0,0,0,0,5],[0,1,0,0,-5],[1,0,0,0,5],[1,1,0,0,-5]];perimeter=orthogonalPerimeter;outlineConnect=0;targetShapes=umlLifeline;portConstraint=eastwest;newEdgeStyle={&quot;curved&quot;:0,&quot;rounded&quot;:0};strokeColor=#457B9D;fontColor=#1D3557;fillColor=#A8DADC;" vertex="1" parent="1">
          <mxGeometry x="675" y="701" width="10" height="114" as="geometry" />
        </mxCell>
        <mxCell id="2DmFidUWHQ-WV6GZ3Nr7-31" value="Form &#39;Order Name&#39; from link, for each order&lt;br&gt;(find last index of &#39;/&#39; and remove everything &lt;br&gt;up to it, including itself + remove extension)&amp;nbsp;" style="html=1;verticalAlign=bottom;endArrow=block;curved=0;rounded=0;strokeColor=#457B9D;fontColor=#1D3557;fillColor=#A8DADC;" edge="1" parent="1">
          <mxGeometry x="0.1429" width="80" relative="1" as="geometry">
            <mxPoint x="680" y="700" as="sourcePoint" />
            <mxPoint x="680" y="820" as="targetPoint" />
            <Array as="points">
              <mxPoint x="760" y="700" />
              <mxPoint x="760" y="820" />
            </Array>
            <mxPoint as="offset" />
          </mxGeometry>
        </mxCell>
        <mxCell id="2DmFidUWHQ-WV6GZ3Nr7-130" value="" style="endArrow=none;dashed=1;html=1;dashPattern=1 3;strokeWidth=2;rounded=0;strokeColor=#457B9D;fontColor=#1D3557;fillColor=#A8DADC;entryX=0.5;entryY=0.986;entryDx=0;entryDy=0;entryPerimeter=0;" edge="1" parent="1" source="2DmFidUWHQ-WV6GZ3Nr7-138" target="2DmFidUWHQ-WV6GZ3Nr7-131">
          <mxGeometry width="50" height="50" relative="1" as="geometry">
            <mxPoint x="680" y="4480" as="sourcePoint" />
            <mxPoint x="680" y="813" as="targetPoint" />
          </mxGeometry>
        </mxCell>
        <mxCell id="2DmFidUWHQ-WV6GZ3Nr7-131" value="" style="html=1;points=[[0,0,0,0,5],[0,1,0,0,-5],[1,0,0,0,5],[1,1,0,0,-5]];perimeter=orthogonalPerimeter;outlineConnect=0;targetShapes=umlLifeline;portConstraint=eastwest;newEdgeStyle={&quot;curved&quot;:0,&quot;rounded&quot;:0};strokeColor=#457B9D;fontColor=#1D3557;fillColor=#A8DADC;" vertex="1" parent="1">
          <mxGeometry x="675" y="841" width="10" height="116" as="geometry" />
        </mxCell>
        <mxCell id="2DmFidUWHQ-WV6GZ3Nr7-32" value="Form &#39;Complaint Ans Marker&#39;&amp;nbsp; for each order&lt;br&gt;(Check if Complaint Description is empty, if empty -&lt;br&gt;set Marker to &#39;false&#39;, else - to &#39;true&#39;)" style="html=1;verticalAlign=bottom;endArrow=block;curved=0;rounded=0;strokeColor=#457B9D;fontColor=#1D3557;fillColor=#A8DADC;" edge="1" parent="1">
          <mxGeometry x="0.1429" width="80" relative="1" as="geometry">
            <mxPoint x="680" y="840" as="sourcePoint" />
            <mxPoint x="680" y="960" as="targetPoint" />
            <Array as="points">
              <mxPoint x="760" y="840" />
              <mxPoint x="760" y="960" />
            </Array>
            <mxPoint as="offset" />
          </mxGeometry>
        </mxCell>
        <mxCell id="2DmFidUWHQ-WV6GZ3Nr7-132" value="" style="endArrow=none;dashed=1;html=1;dashPattern=1 3;strokeWidth=2;rounded=0;strokeColor=#457B9D;fontColor=#1D3557;fillColor=#A8DADC;entryX=0.5;entryY=0.5;entryDx=0;entryDy=0;entryPerimeter=0;" edge="1" parent="1" source="2DmFidUWHQ-WV6GZ3Nr7-160" target="2DmFidUWHQ-WV6GZ3Nr7-133">
          <mxGeometry width="50" height="50" relative="1" as="geometry">
            <mxPoint x="120" y="4481" as="sourcePoint" />
            <mxPoint x="120" y="194" as="targetPoint" />
          </mxGeometry>
        </mxCell>
        <mxCell id="2DmFidUWHQ-WV6GZ3Nr7-133" value="" style="html=1;points=[[0,0,0,0,5],[0,1,0,0,-5],[1,0,0,0,5],[1,1,0,0,-5]];perimeter=orthogonalPerimeter;outlineConnect=0;targetShapes=umlLifeline;portConstraint=eastwest;newEdgeStyle={&quot;curved&quot;:0,&quot;rounded&quot;:0};strokeColor=#457B9D;fontColor=#1D3557;fillColor=#A8DADC;" vertex="1" parent="1">
          <mxGeometry x="114" y="1200" width="10" height="564" as="geometry" />
        </mxCell>
        <mxCell id="2DmFidUWHQ-WV6GZ3Nr7-134" value="" style="endArrow=none;dashed=1;html=1;dashPattern=1 3;strokeWidth=2;rounded=0;strokeColor=#457B9D;fontColor=#1D3557;fillColor=#A8DADC;entryX=0.557;entryY=1.055;entryDx=0;entryDy=0;entryPerimeter=0;" edge="1" parent="1" source="2DmFidUWHQ-WV6GZ3Nr7-153" target="2DmFidUWHQ-WV6GZ3Nr7-135">
          <mxGeometry width="50" height="50" relative="1" as="geometry">
            <mxPoint x="400" y="4480" as="sourcePoint" />
            <mxPoint x="401" y="1041" as="targetPoint" />
          </mxGeometry>
        </mxCell>
        <mxCell id="2DmFidUWHQ-WV6GZ3Nr7-136" value="" style="html=1;verticalAlign=bottom;endArrow=block;curved=0;rounded=0;strokeColor=#457B9D;fontColor=#1D3557;fillColor=#A8DADC;" edge="1" parent="1" target="2DmFidUWHQ-WV6GZ3Nr7-135">
          <mxGeometry width="80" relative="1" as="geometry">
            <mxPoint x="400" y="1240" as="sourcePoint" />
            <mxPoint x="680" y="1240" as="targetPoint" />
          </mxGeometry>
        </mxCell>
        <mxCell id="2DmFidUWHQ-WV6GZ3Nr7-135" value="" style="html=1;points=[[0,0,0,0,5],[0,1,0,0,-5],[1,0,0,0,5],[1,1,0,0,-5]];perimeter=orthogonalPerimeter;outlineConnect=0;targetShapes=umlLifeline;portConstraint=eastwest;newEdgeStyle={&quot;curved&quot;:0,&quot;rounded&quot;:0};strokeColor=#457B9D;fontColor=#1D3557;fillColor=#A8DADC;" vertex="1" parent="1">
          <mxGeometry x="393" y="1230" width="10" height="28" as="geometry" />
        </mxCell>
        <mxCell id="2DmFidUWHQ-WV6GZ3Nr7-137" value="" style="endArrow=none;dashed=1;html=1;dashPattern=1 3;strokeWidth=2;rounded=0;strokeColor=#457B9D;fontColor=#1D3557;fillColor=#A8DADC;entryX=0.5;entryY=0.986;entryDx=0;entryDy=0;entryPerimeter=0;" edge="1" parent="1" source="2DmFidUWHQ-WV6GZ3Nr7-140" target="2DmFidUWHQ-WV6GZ3Nr7-138">
          <mxGeometry width="50" height="50" relative="1" as="geometry">
            <mxPoint x="680" y="4480" as="sourcePoint" />
            <mxPoint x="680" y="955" as="targetPoint" />
          </mxGeometry>
        </mxCell>
        <mxCell id="2DmFidUWHQ-WV6GZ3Nr7-138" value="" style="html=1;points=[[0,0,0,0,5],[0,1,0,0,-5],[1,0,0,0,5],[1,1,0,0,-5]];perimeter=orthogonalPerimeter;outlineConnect=0;targetShapes=umlLifeline;portConstraint=eastwest;newEdgeStyle={&quot;curved&quot;:0,&quot;rounded&quot;:0};strokeColor=#457B9D;fontColor=#1D3557;fillColor=#A8DADC;" vertex="1" parent="1">
          <mxGeometry x="675" y="1310" width="10" height="97" as="geometry" />
        </mxCell>
        <mxCell id="2DmFidUWHQ-WV6GZ3Nr7-139" value="" style="endArrow=none;dashed=1;html=1;dashPattern=1 3;strokeWidth=2;rounded=0;strokeColor=#457B9D;fontColor=#1D3557;fillColor=#A8DADC;entryX=0.5;entryY=0.986;entryDx=0;entryDy=0;entryPerimeter=0;" edge="1" parent="1" source="2DmFidUWHQ-WV6GZ3Nr7-150" target="2DmFidUWHQ-WV6GZ3Nr7-140">
          <mxGeometry width="50" height="50" relative="1" as="geometry">
            <mxPoint x="680" y="4480" as="sourcePoint" />
            <mxPoint x="680" y="1406" as="targetPoint" />
          </mxGeometry>
        </mxCell>
        <mxCell id="2DmFidUWHQ-WV6GZ3Nr7-140" value="" style="html=1;points=[[0,0,0,0,5],[0,1,0,0,-5],[1,0,0,0,5],[1,1,0,0,-5]];perimeter=orthogonalPerimeter;outlineConnect=0;targetShapes=umlLifeline;portConstraint=eastwest;newEdgeStyle={&quot;curved&quot;:0,&quot;rounded&quot;:0};strokeColor=#457B9D;fontColor=#1D3557;fillColor=#A8DADC;" vertex="1" parent="1">
          <mxGeometry x="675" y="1474" width="10" height="95" as="geometry" />
        </mxCell>
        <mxCell id="2DmFidUWHQ-WV6GZ3Nr7-144" value="" style="endArrow=none;dashed=1;html=1;dashPattern=1 3;strokeWidth=2;rounded=0;strokeColor=#457B9D;fontColor=#1D3557;fillColor=#A8DADC;entryX=0.5;entryY=0.986;entryDx=0;entryDy=0;entryPerimeter=0;" edge="1" parent="1" source="2DmFidUWHQ-WV6GZ3Nr7-177" target="2DmFidUWHQ-WV6GZ3Nr7-141">
          <mxGeometry width="50" height="50" relative="1" as="geometry">
            <mxPoint x="1801" y="4480" as="sourcePoint" />
            <mxPoint x="1801" y="144" as="targetPoint" />
          </mxGeometry>
        </mxCell>
        <mxCell id="2DmFidUWHQ-WV6GZ3Nr7-141" value="" style="html=1;points=[[0,0,0,0,5],[0,1,0,0,-5],[1,0,0,0,5],[1,1,0,0,-5]];perimeter=orthogonalPerimeter;outlineConnect=0;targetShapes=umlLifeline;portConstraint=eastwest;newEdgeStyle={&quot;curved&quot;:0,&quot;rounded&quot;:0};strokeColor=#457B9D;fontColor=#1D3557;fillColor=#A8DADC;" vertex="1" parent="1">
          <mxGeometry x="1796" y="1474" width="10" height="58" as="geometry" />
        </mxCell>
        <mxCell id="2DmFidUWHQ-WV6GZ3Nr7-142" value="" style="html=1;points=[[0,0,0,0,5],[0,1,0,0,-5],[1,0,0,0,5],[1,1,0,0,-5]];perimeter=orthogonalPerimeter;outlineConnect=0;targetShapes=umlLifeline;portConstraint=eastwest;newEdgeStyle={&quot;curved&quot;:0,&quot;rounded&quot;:0};strokeColor=#457B9D;fontColor=#1D3557;fillColor=#A8DADC;" vertex="1" parent="1">
          <mxGeometry x="1796" y="1563" width="10" height="25" as="geometry" />
        </mxCell>
        <mxCell id="2DmFidUWHQ-WV6GZ3Nr7-149" value="" style="endArrow=none;dashed=1;html=1;dashPattern=1 3;strokeWidth=2;rounded=0;strokeColor=#457B9D;fontColor=#1D3557;fillColor=#A8DADC;entryX=0.5;entryY=0.986;entryDx=0;entryDy=0;entryPerimeter=0;" edge="1" parent="1" source="2DmFidUWHQ-WV6GZ3Nr7-151" target="2DmFidUWHQ-WV6GZ3Nr7-150">
          <mxGeometry width="50" height="50" relative="1" as="geometry">
            <mxPoint x="680" y="4480" as="sourcePoint" />
            <mxPoint x="680" y="1568" as="targetPoint" />
          </mxGeometry>
        </mxCell>
        <mxCell id="2DmFidUWHQ-WV6GZ3Nr7-150" value="" style="html=1;points=[[0,0,0,0,5],[0,1,0,0,-5],[1,0,0,0,5],[1,1,0,0,-5]];perimeter=orthogonalPerimeter;outlineConnect=0;targetShapes=umlLifeline;portConstraint=eastwest;newEdgeStyle={&quot;curved&quot;:0,&quot;rounded&quot;:0};strokeColor=#457B9D;fontColor=#1D3557;fillColor=#A8DADC;" vertex="1" parent="1">
          <mxGeometry x="675" y="1684" width="10" height="41" as="geometry" />
        </mxCell>
        <mxCell id="2DmFidUWHQ-WV6GZ3Nr7-152" value="" style="endArrow=none;dashed=1;html=1;dashPattern=1 3;strokeWidth=2;rounded=0;strokeColor=#457B9D;fontColor=#1D3557;fillColor=#A8DADC;entryX=0.5;entryY=0.986;entryDx=0;entryDy=0;entryPerimeter=0;" edge="1" parent="1" source="2DmFidUWHQ-WV6GZ3Nr7-164" target="2DmFidUWHQ-WV6GZ3Nr7-151">
          <mxGeometry width="50" height="50" relative="1" as="geometry">
            <mxPoint x="680" y="4480" as="sourcePoint" />
            <mxPoint x="680" y="1724" as="targetPoint" />
          </mxGeometry>
        </mxCell>
        <mxCell id="2DmFidUWHQ-WV6GZ3Nr7-151" value="" style="html=1;points=[[0,0,0,0,5],[0,1,0,0,-5],[1,0,0,0,5],[1,1,0,0,-5]];perimeter=orthogonalPerimeter;outlineConnect=0;targetShapes=umlLifeline;portConstraint=eastwest;newEdgeStyle={&quot;curved&quot;:0,&quot;rounded&quot;:0};strokeColor=#457B9D;fontColor=#1D3557;fillColor=#A8DADC;" vertex="1" parent="1">
          <mxGeometry x="675" y="1832" width="10" height="41" as="geometry" />
        </mxCell>
        <mxCell id="2DmFidUWHQ-WV6GZ3Nr7-154" value="" style="endArrow=none;dashed=1;html=1;dashPattern=1 3;strokeWidth=2;rounded=0;strokeColor=#457B9D;fontColor=#1D3557;fillColor=#A8DADC;entryX=0.557;entryY=1.055;entryDx=0;entryDy=0;entryPerimeter=0;" edge="1" parent="1" source="2DmFidUWHQ-WV6GZ3Nr7-155" target="2DmFidUWHQ-WV6GZ3Nr7-153">
          <mxGeometry width="50" height="50" relative="1" as="geometry">
            <mxPoint x="400" y="4480" as="sourcePoint" />
            <mxPoint x="399" y="1260" as="targetPoint" />
          </mxGeometry>
        </mxCell>
        <mxCell id="2DmFidUWHQ-WV6GZ3Nr7-153" value="" style="html=1;points=[[0,0,0,0,5],[0,1,0,0,-5],[1,0,0,0,5],[1,1,0,0,-5]];perimeter=orthogonalPerimeter;outlineConnect=0;targetShapes=umlLifeline;portConstraint=eastwest;newEdgeStyle={&quot;curved&quot;:0,&quot;rounded&quot;:0};strokeColor=#457B9D;fontColor=#1D3557;fillColor=#A8DADC;" vertex="1" parent="1">
          <mxGeometry x="395" y="1725" width="10" height="41" as="geometry" />
        </mxCell>
        <mxCell id="2DmFidUWHQ-WV6GZ3Nr7-156" value="" style="endArrow=none;dashed=1;html=1;dashPattern=1 3;strokeWidth=2;rounded=0;strokeColor=#457B9D;fontColor=#1D3557;fillColor=#A8DADC;entryX=0.557;entryY=1.055;entryDx=0;entryDy=0;entryPerimeter=0;" edge="1" parent="1" source="2DmFidUWHQ-WV6GZ3Nr7-162" target="2DmFidUWHQ-WV6GZ3Nr7-155">
          <mxGeometry width="50" height="50" relative="1" as="geometry">
            <mxPoint x="400" y="4480" as="sourcePoint" />
            <mxPoint x="401" y="1768" as="targetPoint" />
          </mxGeometry>
        </mxCell>
        <mxCell id="2DmFidUWHQ-WV6GZ3Nr7-155" value="" style="html=1;points=[[0,0,0,0,5],[0,1,0,0,-5],[1,0,0,0,5],[1,1,0,0,-5]];perimeter=orthogonalPerimeter;outlineConnect=0;targetShapes=umlLifeline;portConstraint=eastwest;newEdgeStyle={&quot;curved&quot;:0,&quot;rounded&quot;:0};strokeColor=#457B9D;fontColor=#1D3557;fillColor=#A8DADC;" vertex="1" parent="1">
          <mxGeometry x="397" y="1869" width="10" height="41" as="geometry" />
        </mxCell>
        <mxCell id="2DmFidUWHQ-WV6GZ3Nr7-157" value="" style="endArrow=none;dashed=1;html=1;dashPattern=1 3;strokeWidth=2;rounded=0;strokeColor=#457B9D;fontColor=#1D3557;fillColor=#A8DADC;entryX=0.5;entryY=0.5;entryDx=0;entryDy=0;entryPerimeter=0;" edge="1" parent="1" source="2DmFidUWHQ-WV6GZ3Nr7-167" target="2DmFidUWHQ-WV6GZ3Nr7-158">
          <mxGeometry width="50" height="50" relative="1" as="geometry">
            <mxPoint x="120" y="4481" as="sourcePoint" />
            <mxPoint x="119" y="1159" as="targetPoint" />
          </mxGeometry>
        </mxCell>
        <mxCell id="2DmFidUWHQ-WV6GZ3Nr7-158" value="" style="html=1;points=[[0,0,0,0,5],[0,1,0,0,-5],[1,0,0,0,5],[1,1,0,0,-5]];perimeter=orthogonalPerimeter;outlineConnect=0;targetShapes=umlLifeline;portConstraint=eastwest;newEdgeStyle={&quot;curved&quot;:0,&quot;rounded&quot;:0};strokeColor=#457B9D;fontColor=#1D3557;fillColor=#A8DADC;" vertex="1" parent="1">
          <mxGeometry x="114" y="2063" width="10" height="295" as="geometry" />
        </mxCell>
        <mxCell id="2DmFidUWHQ-WV6GZ3Nr7-159" value="" style="endArrow=none;dashed=1;html=1;dashPattern=1 3;strokeWidth=2;rounded=0;strokeColor=#457B9D;fontColor=#1D3557;fillColor=#A8DADC;entryX=0.5;entryY=0.5;entryDx=0;entryDy=0;entryPerimeter=0;" edge="1" parent="1" source="2DmFidUWHQ-WV6GZ3Nr7-158" target="2DmFidUWHQ-WV6GZ3Nr7-160">
          <mxGeometry width="50" height="50" relative="1" as="geometry">
            <mxPoint x="119" y="2063" as="sourcePoint" />
            <mxPoint x="119" y="1482" as="targetPoint" />
          </mxGeometry>
        </mxCell>
        <mxCell id="2DmFidUWHQ-WV6GZ3Nr7-160" value="" style="html=1;points=[[0,0,0,0,5],[0,1,0,0,-5],[1,0,0,0,5],[1,1,0,0,-5]];perimeter=orthogonalPerimeter;outlineConnect=0;targetShapes=umlLifeline;portConstraint=eastwest;newEdgeStyle={&quot;curved&quot;:0,&quot;rounded&quot;:0};strokeColor=#457B9D;fontColor=#1D3557;fillColor=#A8DADC;" vertex="1" parent="1">
          <mxGeometry x="114" y="1782" width="10" height="123" as="geometry" />
        </mxCell>
        <mxCell id="2DmFidUWHQ-WV6GZ3Nr7-38" value="Alt" style="shape=umlFrame;whiteSpace=wrap;html=1;pointerEvents=0;strokeColor=#457B9D;fontColor=#1D3557;fillColor=#A8DADC;" vertex="1" parent="1">
          <mxGeometry x="80" y="1642" width="650" height="290" as="geometry" />
        </mxCell>
        <mxCell id="2DmFidUWHQ-WV6GZ3Nr7-40" value="[Selected Order &#39;Complaint Ans Marker&#39; = false]" style="text;html=1;strokeColor=none;fillColor=none;align=center;verticalAlign=middle;whiteSpace=wrap;rounded=0;fontColor=#1D3557;" vertex="1" parent="1">
          <mxGeometry x="135" y="1652" width="190" height="50" as="geometry" />
        </mxCell>
        <mxCell id="2DmFidUWHQ-WV6GZ3Nr7-161" value="" style="endArrow=none;dashed=1;html=1;dashPattern=1 3;strokeWidth=2;rounded=0;strokeColor=#457B9D;fontColor=#1D3557;fillColor=#A8DADC;entryX=0.557;entryY=1.055;entryDx=0;entryDy=0;entryPerimeter=0;" edge="1" parent="1" source="2DmFidUWHQ-WV6GZ3Nr7-169" target="2DmFidUWHQ-WV6GZ3Nr7-162">
          <mxGeometry width="50" height="50" relative="1" as="geometry">
            <mxPoint x="400" y="4480" as="sourcePoint" />
            <mxPoint x="403" y="1912" as="targetPoint" />
          </mxGeometry>
        </mxCell>
        <mxCell id="2DmFidUWHQ-WV6GZ3Nr7-162" value="" style="html=1;points=[[0,0,0,0,5],[0,1,0,0,-5],[1,0,0,0,5],[1,1,0,0,-5]];perimeter=orthogonalPerimeter;outlineConnect=0;targetShapes=umlLifeline;portConstraint=eastwest;newEdgeStyle={&quot;curved&quot;:0,&quot;rounded&quot;:0};strokeColor=#457B9D;fontColor=#1D3557;fillColor=#A8DADC;" vertex="1" parent="1">
          <mxGeometry x="395" y="2102" width="10" height="214" as="geometry" />
        </mxCell>
        <mxCell id="2DmFidUWHQ-WV6GZ3Nr7-163" value="" style="endArrow=none;dashed=1;html=1;dashPattern=1 3;strokeWidth=2;rounded=0;strokeColor=#457B9D;fontColor=#1D3557;fillColor=#A8DADC;entryX=0.5;entryY=0.986;entryDx=0;entryDy=0;entryPerimeter=0;" edge="1" parent="1" source="2DmFidUWHQ-WV6GZ3Nr7-175" target="2DmFidUWHQ-WV6GZ3Nr7-164">
          <mxGeometry width="50" height="50" relative="1" as="geometry">
            <mxPoint x="680" y="4480" as="sourcePoint" />
            <mxPoint x="680" y="1872" as="targetPoint" />
          </mxGeometry>
        </mxCell>
        <mxCell id="2DmFidUWHQ-WV6GZ3Nr7-164" value="" style="html=1;points=[[0,0,0,0,5],[0,1,0,0,-5],[1,0,0,0,5],[1,1,0,0,-5]];perimeter=orthogonalPerimeter;outlineConnect=0;targetShapes=umlLifeline;portConstraint=eastwest;newEdgeStyle={&quot;curved&quot;:0,&quot;rounded&quot;:0};strokeColor=#457B9D;fontColor=#1D3557;fillColor=#A8DADC;" vertex="1" parent="1">
          <mxGeometry x="675" y="2143" width="10" height="138" as="geometry" />
        </mxCell>
        <mxCell id="2DmFidUWHQ-WV6GZ3Nr7-165" value="" style="html=1;points=[[0,0,0,0,5],[0,1,0,0,-5],[1,0,0,0,5],[1,1,0,0,-5]];perimeter=orthogonalPerimeter;outlineConnect=0;targetShapes=umlLifeline;portConstraint=eastwest;newEdgeStyle={&quot;curved&quot;:0,&quot;rounded&quot;:0};strokeColor=#457B9D;fontColor=#1D3557;fillColor=#A8DADC;" vertex="1" parent="1">
          <mxGeometry x="1235" y="2163" width="10" height="98" as="geometry" />
        </mxCell>
        <mxCell id="2DmFidUWHQ-WV6GZ3Nr7-166" value="" style="endArrow=none;dashed=1;html=1;dashPattern=1 3;strokeWidth=2;rounded=0;strokeColor=#457B9D;fontColor=#1D3557;fillColor=#A8DADC;entryX=0.5;entryY=0.5;entryDx=0;entryDy=0;entryPerimeter=0;" edge="1" parent="1" source="2DmFidUWHQ-WV6GZ3Nr7-171" target="2DmFidUWHQ-WV6GZ3Nr7-167">
          <mxGeometry width="50" height="50" relative="1" as="geometry">
            <mxPoint x="120" y="4481" as="sourcePoint" />
            <mxPoint x="119" y="2211" as="targetPoint" />
          </mxGeometry>
        </mxCell>
        <mxCell id="2DmFidUWHQ-WV6GZ3Nr7-167" value="" style="html=1;points=[[0,0,0,0,5],[0,1,0,0,-5],[1,0,0,0,5],[1,1,0,0,-5]];perimeter=orthogonalPerimeter;outlineConnect=0;targetShapes=umlLifeline;portConstraint=eastwest;newEdgeStyle={&quot;curved&quot;:0,&quot;rounded&quot;:0};strokeColor=#457B9D;fontColor=#1D3557;fillColor=#A8DADC;" vertex="1" parent="1">
          <mxGeometry x="116" y="2399" width="10" height="41" as="geometry" />
        </mxCell>
        <mxCell id="2DmFidUWHQ-WV6GZ3Nr7-168" value="" style="endArrow=none;dashed=1;html=1;dashPattern=1 3;strokeWidth=2;rounded=0;strokeColor=#457B9D;fontColor=#1D3557;fillColor=#A8DADC;entryX=0.557;entryY=1.055;entryDx=0;entryDy=0;entryPerimeter=0;" edge="1" parent="1" source="2DmFidUWHQ-WV6GZ3Nr7-173" target="2DmFidUWHQ-WV6GZ3Nr7-169">
          <mxGeometry width="50" height="50" relative="1" as="geometry">
            <mxPoint x="400" y="4480" as="sourcePoint" />
            <mxPoint x="401" y="2328" as="targetPoint" />
          </mxGeometry>
        </mxCell>
        <mxCell id="2DmFidUWHQ-WV6GZ3Nr7-169" value="" style="html=1;points=[[0,0,0,0,5],[0,1,0,0,-5],[1,0,0,0,5],[1,1,0,0,-5]];perimeter=orthogonalPerimeter;outlineConnect=0;targetShapes=umlLifeline;portConstraint=eastwest;newEdgeStyle={&quot;curved&quot;:0,&quot;rounded&quot;:0};strokeColor=#457B9D;fontColor=#1D3557;fillColor=#A8DADC;" vertex="1" parent="1">
          <mxGeometry x="395" y="2359" width="10" height="40" as="geometry" />
        </mxCell>
        <mxCell id="2DmFidUWHQ-WV6GZ3Nr7-170" value="" style="endArrow=none;dashed=1;html=1;dashPattern=1 3;strokeWidth=2;rounded=0;strokeColor=#457B9D;fontColor=#1D3557;fillColor=#A8DADC;entryX=0.5;entryY=0.5;entryDx=0;entryDy=0;entryPerimeter=0;" edge="1" parent="1" source="2DmFidUWHQ-WV6GZ3Nr7-200" target="2DmFidUWHQ-WV6GZ3Nr7-171">
          <mxGeometry width="50" height="50" relative="1" as="geometry">
            <mxPoint x="120" y="4481" as="sourcePoint" />
            <mxPoint x="121" y="2420" as="targetPoint" />
          </mxGeometry>
        </mxCell>
        <mxCell id="2DmFidUWHQ-WV6GZ3Nr7-171" value="" style="html=1;points=[[0,0,0,0,5],[0,1,0,0,-5],[1,0,0,0,5],[1,1,0,0,-5]];perimeter=orthogonalPerimeter;outlineConnect=0;targetShapes=umlLifeline;portConstraint=eastwest;newEdgeStyle={&quot;curved&quot;:0,&quot;rounded&quot;:0};strokeColor=#457B9D;fontColor=#1D3557;fillColor=#A8DADC;" vertex="1" parent="1">
          <mxGeometry x="116" y="2470" width="10" height="24" as="geometry" />
        </mxCell>
        <mxCell id="2DmFidUWHQ-WV6GZ3Nr7-172" value="" style="endArrow=none;dashed=1;html=1;dashPattern=1 3;strokeWidth=2;rounded=0;strokeColor=#457B9D;fontColor=#1D3557;fillColor=#A8DADC;entryX=0.557;entryY=1.055;entryDx=0;entryDy=0;entryPerimeter=0;" edge="1" parent="1" source="2DmFidUWHQ-WV6GZ3Nr7-202" target="2DmFidUWHQ-WV6GZ3Nr7-173">
          <mxGeometry width="50" height="50" relative="1" as="geometry">
            <mxPoint x="400" y="4480" as="sourcePoint" />
            <mxPoint x="401" y="2401" as="targetPoint" />
          </mxGeometry>
        </mxCell>
        <mxCell id="2DmFidUWHQ-WV6GZ3Nr7-173" value="" style="html=1;points=[[0,0,0,0,5],[0,1,0,0,-5],[1,0,0,0,5],[1,1,0,0,-5]];perimeter=orthogonalPerimeter;outlineConnect=0;targetShapes=umlLifeline;portConstraint=eastwest;newEdgeStyle={&quot;curved&quot;:0,&quot;rounded&quot;:0};strokeColor=#457B9D;fontColor=#1D3557;fillColor=#A8DADC;" vertex="1" parent="1">
          <mxGeometry x="395" y="2520" width="10" height="25" as="geometry" />
        </mxCell>
        <mxCell id="2DmFidUWHQ-WV6GZ3Nr7-174" value="" style="endArrow=none;dashed=1;html=1;dashPattern=1 3;strokeWidth=2;rounded=0;strokeColor=#457B9D;fontColor=#1D3557;fillColor=#A8DADC;entryX=0.5;entryY=0.986;entryDx=0;entryDy=0;entryPerimeter=0;" edge="1" parent="1" source="2DmFidUWHQ-WV6GZ3Nr7-181" target="2DmFidUWHQ-WV6GZ3Nr7-175">
          <mxGeometry width="50" height="50" relative="1" as="geometry">
            <mxPoint x="680" y="4480" as="sourcePoint" />
            <mxPoint x="680" y="2279" as="targetPoint" />
          </mxGeometry>
        </mxCell>
        <mxCell id="2DmFidUWHQ-WV6GZ3Nr7-175" value="" style="html=1;points=[[0,0,0,0,5],[0,1,0,0,-5],[1,0,0,0,5],[1,1,0,0,-5]];perimeter=orthogonalPerimeter;outlineConnect=0;targetShapes=umlLifeline;portConstraint=eastwest;newEdgeStyle={&quot;curved&quot;:0,&quot;rounded&quot;:0};strokeColor=#457B9D;fontColor=#1D3557;fillColor=#A8DADC;" vertex="1" parent="1">
          <mxGeometry x="675" y="2579" width="10" height="103" as="geometry" />
        </mxCell>
        <mxCell id="2DmFidUWHQ-WV6GZ3Nr7-176" value="" style="endArrow=none;dashed=1;html=1;dashPattern=1 3;strokeWidth=2;rounded=0;strokeColor=#457B9D;fontColor=#1D3557;fillColor=#A8DADC;entryX=0.5;entryY=0.986;entryDx=0;entryDy=0;entryPerimeter=0;" edge="1" parent="1" source="2DmFidUWHQ-WV6GZ3Nr7-178" target="2DmFidUWHQ-WV6GZ3Nr7-177">
          <mxGeometry width="50" height="50" relative="1" as="geometry">
            <mxPoint x="1801" y="4480" as="sourcePoint" />
            <mxPoint x="1801" y="1531" as="targetPoint" />
          </mxGeometry>
        </mxCell>
        <mxCell id="2DmFidUWHQ-WV6GZ3Nr7-177" value="" style="html=1;points=[[0,0,0,0,5],[0,1,0,0,-5],[1,0,0,0,5],[1,1,0,0,-5]];perimeter=orthogonalPerimeter;outlineConnect=0;targetShapes=umlLifeline;portConstraint=eastwest;newEdgeStyle={&quot;curved&quot;:0,&quot;rounded&quot;:0};strokeColor=#457B9D;fontColor=#1D3557;fillColor=#A8DADC;" vertex="1" parent="1">
          <mxGeometry x="1795" y="2581" width="10" height="59" as="geometry" />
        </mxCell>
        <mxCell id="2DmFidUWHQ-WV6GZ3Nr7-179" value="" style="endArrow=none;dashed=1;html=1;dashPattern=1 3;strokeWidth=2;rounded=0;strokeColor=#457B9D;fontColor=#1D3557;fillColor=#A8DADC;entryX=0.5;entryY=0.986;entryDx=0;entryDy=0;entryPerimeter=0;" edge="1" parent="1" source="2DmFidUWHQ-WV6GZ3Nr7-193" target="2DmFidUWHQ-WV6GZ3Nr7-178">
          <mxGeometry width="50" height="50" relative="1" as="geometry">
            <mxPoint x="1801" y="4480" as="sourcePoint" />
            <mxPoint x="1800" y="2639" as="targetPoint" />
          </mxGeometry>
        </mxCell>
        <mxCell id="2DmFidUWHQ-WV6GZ3Nr7-178" value="" style="html=1;points=[[0,0,0,0,5],[0,1,0,0,-5],[1,0,0,0,5],[1,1,0,0,-5]];perimeter=orthogonalPerimeter;outlineConnect=0;targetShapes=umlLifeline;portConstraint=eastwest;newEdgeStyle={&quot;curved&quot;:0,&quot;rounded&quot;:0};strokeColor=#457B9D;fontColor=#1D3557;fillColor=#A8DADC;" vertex="1" parent="1">
          <mxGeometry x="1796" y="2672" width="10" height="20" as="geometry" />
        </mxCell>
        <mxCell id="2DmFidUWHQ-WV6GZ3Nr7-180" value="" style="endArrow=none;dashed=1;html=1;dashPattern=1 3;strokeWidth=2;rounded=0;strokeColor=#457B9D;fontColor=#1D3557;fillColor=#A8DADC;entryX=0.5;entryY=0.986;entryDx=0;entryDy=0;entryPerimeter=0;" edge="1" parent="1" source="2DmFidUWHQ-WV6GZ3Nr7-204" target="2DmFidUWHQ-WV6GZ3Nr7-181">
          <mxGeometry width="50" height="50" relative="1" as="geometry">
            <mxPoint x="680" y="4480" as="sourcePoint" />
            <mxPoint x="680" y="2681" as="targetPoint" />
          </mxGeometry>
        </mxCell>
        <mxCell id="2DmFidUWHQ-WV6GZ3Nr7-181" value="" style="html=1;points=[[0,0,0,0,5],[0,1,0,0,-5],[1,0,0,0,5],[1,1,0,0,-5]];perimeter=orthogonalPerimeter;outlineConnect=0;targetShapes=umlLifeline;portConstraint=eastwest;newEdgeStyle={&quot;curved&quot;:0,&quot;rounded&quot;:0};strokeColor=#457B9D;fontColor=#1D3557;fillColor=#A8DADC;" vertex="1" parent="1">
          <mxGeometry x="675" y="2756" width="10" height="14" as="geometry" />
        </mxCell>
        <mxCell id="2DmFidUWHQ-WV6GZ3Nr7-182" value="" style="html=1;points=[[0,0,0,0,5],[0,1,0,0,-5],[1,0,0,0,5],[1,1,0,0,-5]];perimeter=orthogonalPerimeter;outlineConnect=0;targetShapes=umlLifeline;portConstraint=eastwest;newEdgeStyle={&quot;curved&quot;:0,&quot;rounded&quot;:0};strokeColor=#457B9D;fontColor=#1D3557;fillColor=#A8DADC;" vertex="1" parent="1">
          <mxGeometry x="2075" y="2760" width="10" height="41" as="geometry" />
        </mxCell>
        <mxCell id="2DmFidUWHQ-WV6GZ3Nr7-183" value="" style="html=1;points=[[0,0,0,0,5],[0,1,0,0,-5],[1,0,0,0,5],[1,1,0,0,-5]];perimeter=orthogonalPerimeter;outlineConnect=0;targetShapes=umlLifeline;portConstraint=eastwest;newEdgeStyle={&quot;curved&quot;:0,&quot;rounded&quot;:0};strokeColor=#457B9D;fontColor=#1D3557;fillColor=#A8DADC;" vertex="1" parent="1">
          <mxGeometry x="2355" y="2801" width="10" height="37" as="geometry" />
        </mxCell>
        <mxCell id="2DmFidUWHQ-WV6GZ3Nr7-184" value="" style="html=1;points=[[0,0,0,0,5],[0,1,0,0,-5],[1,0,0,0,5],[1,1,0,0,-5]];perimeter=orthogonalPerimeter;outlineConnect=0;targetShapes=umlLifeline;portConstraint=eastwest;newEdgeStyle={&quot;curved&quot;:0,&quot;rounded&quot;:0};strokeColor=#457B9D;fontColor=#1D3557;fillColor=#A8DADC;" vertex="1" parent="1">
          <mxGeometry x="955" y="2840" width="10" height="40" as="geometry" />
        </mxCell>
        <mxCell id="2DmFidUWHQ-WV6GZ3Nr7-186" value="" style="endArrow=none;dashed=1;html=1;dashPattern=1 3;strokeWidth=2;rounded=0;strokeColor=#457B9D;fontColor=#1D3557;fillColor=#A8DADC;entryX=0.5;entryY=0.986;entryDx=0;entryDy=0;entryPerimeter=0;" edge="1" parent="1" source="2DmFidUWHQ-WV6GZ3Nr7-188" target="2DmFidUWHQ-WV6GZ3Nr7-185">
          <mxGeometry width="50" height="50" relative="1" as="geometry">
            <mxPoint x="2360" y="4480" as="sourcePoint" />
            <mxPoint x="2360" y="144" as="targetPoint" />
          </mxGeometry>
        </mxCell>
        <mxCell id="2DmFidUWHQ-WV6GZ3Nr7-185" value="" style="html=1;points=[[0,0,0,0,5],[0,1,0,0,-5],[1,0,0,0,5],[1,1,0,0,-5]];perimeter=orthogonalPerimeter;outlineConnect=0;targetShapes=umlLifeline;portConstraint=eastwest;newEdgeStyle={&quot;curved&quot;:0,&quot;rounded&quot;:0};strokeColor=#457B9D;fontColor=#1D3557;fillColor=#A8DADC;" vertex="1" parent="1">
          <mxGeometry x="2355" y="2880" width="10" height="89" as="geometry" />
        </mxCell>
        <mxCell id="2DmFidUWHQ-WV6GZ3Nr7-187" value="" style="endArrow=none;dashed=1;html=1;dashPattern=1 3;strokeWidth=2;rounded=0;strokeColor=#457B9D;fontColor=#1D3557;fillColor=#A8DADC;entryX=0.5;entryY=0.986;entryDx=0;entryDy=0;entryPerimeter=0;" edge="1" parent="1" source="2DmFidUWHQ-WV6GZ3Nr7-191" target="2DmFidUWHQ-WV6GZ3Nr7-188">
          <mxGeometry width="50" height="50" relative="1" as="geometry">
            <mxPoint x="2360" y="4480" as="sourcePoint" />
            <mxPoint x="2360" y="2968" as="targetPoint" />
          </mxGeometry>
        </mxCell>
        <mxCell id="2DmFidUWHQ-WV6GZ3Nr7-188" value="" style="html=1;points=[[0,0,0,0,5],[0,1,0,0,-5],[1,0,0,0,5],[1,1,0,0,-5]];perimeter=orthogonalPerimeter;outlineConnect=0;targetShapes=umlLifeline;portConstraint=eastwest;newEdgeStyle={&quot;curved&quot;:0,&quot;rounded&quot;:0};strokeColor=#457B9D;fontColor=#1D3557;fillColor=#A8DADC;" vertex="1" parent="1">
          <mxGeometry x="2355" y="3010" width="10" height="30" as="geometry" />
        </mxCell>
        <mxCell id="2DmFidUWHQ-WV6GZ3Nr7-189" value="" style="html=1;points=[[0,0,0,0,5],[0,1,0,0,-5],[1,0,0,0,5],[1,1,0,0,-5]];perimeter=orthogonalPerimeter;outlineConnect=0;targetShapes=umlLifeline;portConstraint=eastwest;newEdgeStyle={&quot;curved&quot;:0,&quot;rounded&quot;:0};strokeColor=#457B9D;fontColor=#1D3557;fillColor=#A8DADC;" vertex="1" parent="1">
          <mxGeometry x="2075" y="3102" width="10" height="25" as="geometry" />
        </mxCell>
        <mxCell id="2DmFidUWHQ-WV6GZ3Nr7-190" value="" style="endArrow=none;dashed=1;html=1;dashPattern=1 3;strokeWidth=2;rounded=0;strokeColor=#457B9D;fontColor=#1D3557;fillColor=#A8DADC;entryX=0.5;entryY=0.986;entryDx=0;entryDy=0;entryPerimeter=0;" edge="1" parent="1" source="2DmFidUWHQ-WV6GZ3Nr7-197" target="2DmFidUWHQ-WV6GZ3Nr7-191">
          <mxGeometry width="50" height="50" relative="1" as="geometry">
            <mxPoint x="2360" y="4480" as="sourcePoint" />
            <mxPoint x="2360" y="3040" as="targetPoint" />
          </mxGeometry>
        </mxCell>
        <mxCell id="2DmFidUWHQ-WV6GZ3Nr7-191" value="" style="html=1;points=[[0,0,0,0,5],[0,1,0,0,-5],[1,0,0,0,5],[1,1,0,0,-5]];perimeter=orthogonalPerimeter;outlineConnect=0;targetShapes=umlLifeline;portConstraint=eastwest;newEdgeStyle={&quot;curved&quot;:0,&quot;rounded&quot;:0};strokeColor=#457B9D;fontColor=#1D3557;fillColor=#A8DADC;" vertex="1" parent="1">
          <mxGeometry x="2354" y="3120" width="10" height="120" as="geometry" />
        </mxCell>
        <mxCell id="2DmFidUWHQ-WV6GZ3Nr7-192" value="" style="endArrow=none;dashed=1;html=1;dashPattern=1 3;strokeWidth=2;rounded=0;strokeColor=#457B9D;fontColor=#1D3557;fillColor=#A8DADC;entryX=0.5;entryY=0.986;entryDx=0;entryDy=0;entryPerimeter=0;" edge="1" parent="1" target="2DmFidUWHQ-WV6GZ3Nr7-193">
          <mxGeometry width="50" height="50" relative="1" as="geometry">
            <mxPoint x="1801" y="4480" as="sourcePoint" />
            <mxPoint x="1801" y="2692" as="targetPoint" />
          </mxGeometry>
        </mxCell>
        <mxCell id="2DmFidUWHQ-WV6GZ3Nr7-193" value="" style="html=1;points=[[0,0,0,0,5],[0,1,0,0,-5],[1,0,0,0,5],[1,1,0,0,-5]];perimeter=orthogonalPerimeter;outlineConnect=0;targetShapes=umlLifeline;portConstraint=eastwest;newEdgeStyle={&quot;curved&quot;:0,&quot;rounded&quot;:0};strokeColor=#457B9D;fontColor=#1D3557;fillColor=#A8DADC;" vertex="1" parent="1">
          <mxGeometry x="1794" y="3239" width="10" height="41" as="geometry" />
        </mxCell>
        <mxCell id="2DmFidUWHQ-WV6GZ3Nr7-194" value="" style="endArrow=none;dashed=1;html=1;dashPattern=1 3;strokeWidth=2;rounded=0;strokeColor=#457B9D;fontColor=#1D3557;fillColor=#A8DADC;entryX=0.5;entryY=1;entryDx=0;entryDy=0;" edge="1" parent="1" target="2DmFidUWHQ-WV6GZ3Nr7-195">
          <mxGeometry width="50" height="50" relative="1" as="geometry">
            <mxPoint x="1520" y="4480" as="sourcePoint" />
            <mxPoint x="1518" y="638" as="targetPoint" />
          </mxGeometry>
        </mxCell>
        <mxCell id="2DmFidUWHQ-WV6GZ3Nr7-195" value="" style="html=1;points=[[0,0,0,0,5],[0,1,0,0,-5],[1,0,0,0,5],[1,1,0,0,-5]];perimeter=orthogonalPerimeter;outlineConnect=0;targetShapes=umlLifeline;portConstraint=eastwest;newEdgeStyle={&quot;curved&quot;:0,&quot;rounded&quot;:0};strokeColor=#457B9D;fontColor=#1D3557;fillColor=#A8DADC;" vertex="1" parent="1">
          <mxGeometry x="1513" y="3274" width="10" height="68" as="geometry" />
        </mxCell>
        <mxCell id="2DmFidUWHQ-WV6GZ3Nr7-196" value="" style="endArrow=none;dashed=1;html=1;dashPattern=1 3;strokeWidth=2;rounded=0;strokeColor=#457B9D;fontColor=#1D3557;fillColor=#A8DADC;entryX=0.5;entryY=0.986;entryDx=0;entryDy=0;entryPerimeter=0;" edge="1" parent="1" target="2DmFidUWHQ-WV6GZ3Nr7-197">
          <mxGeometry width="50" height="50" relative="1" as="geometry">
            <mxPoint x="2360" y="4480" as="sourcePoint" />
            <mxPoint x="2359" y="3238" as="targetPoint" />
          </mxGeometry>
        </mxCell>
        <mxCell id="2DmFidUWHQ-WV6GZ3Nr7-197" value="" style="html=1;points=[[0,0,0,0,5],[0,1,0,0,-5],[1,0,0,0,5],[1,1,0,0,-5]];perimeter=orthogonalPerimeter;outlineConnect=0;targetShapes=umlLifeline;portConstraint=eastwest;newEdgeStyle={&quot;curved&quot;:0,&quot;rounded&quot;:0};strokeColor=#457B9D;fontColor=#1D3557;fillColor=#A8DADC;" vertex="1" parent="1">
          <mxGeometry x="2352" y="3340" width="10" height="97" as="geometry" />
        </mxCell>
        <mxCell id="2DmFidUWHQ-WV6GZ3Nr7-93" value="Loop" style="shape=umlFrame;whiteSpace=wrap;html=1;pointerEvents=0;strokeColor=#457B9D;fontColor=#1D3557;fillColor=#A8DADC;" vertex="1" parent="1">
          <mxGeometry x="1480" y="3080" width="920" height="400" as="geometry" />
        </mxCell>
        <mxCell id="2DmFidUWHQ-WV6GZ3Nr7-94" value="[While Transaction Falls]" style="text;html=1;strokeColor=none;fillColor=none;align=center;verticalAlign=middle;whiteSpace=wrap;rounded=0;fontColor=#1D3557;" vertex="1" parent="1">
          <mxGeometry x="1540" y="3100" width="150" height="10" as="geometry" />
        </mxCell>
        <mxCell id="2DmFidUWHQ-WV6GZ3Nr7-91" value="Opt" style="shape=umlFrame;whiteSpace=wrap;html=1;pointerEvents=0;strokeColor=#457B9D;fontColor=#1D3557;fillColor=#A8DADC;" vertex="1" parent="1">
          <mxGeometry x="2020" y="3370" width="380" height="110" as="geometry" />
        </mxCell>
        <mxCell id="2DmFidUWHQ-WV6GZ3Nr7-92" value="[Transaction Falled]" style="text;html=1;strokeColor=none;fillColor=none;align=center;verticalAlign=middle;whiteSpace=wrap;rounded=0;fontColor=#1D3557;" vertex="1" parent="1">
          <mxGeometry x="2080" y="3380" width="130" height="10" as="geometry" />
        </mxCell>
        <mxCell id="2DmFidUWHQ-WV6GZ3Nr7-198" value="" style="html=1;points=[[0,0,0,0,5],[0,1,0,0,-5],[1,0,0,0,5],[1,1,0,0,-5]];perimeter=orthogonalPerimeter;outlineConnect=0;targetShapes=umlLifeline;portConstraint=eastwest;newEdgeStyle={&quot;curved&quot;:0,&quot;rounded&quot;:0};strokeColor=#457B9D;fontColor=#1D3557;fillColor=#A8DADC;" vertex="1" parent="1">
          <mxGeometry x="2075" y="3424" width="10" height="24" as="geometry" />
        </mxCell>
        <mxCell id="2DmFidUWHQ-WV6GZ3Nr7-199" value="" style="endArrow=none;dashed=1;html=1;dashPattern=1 3;strokeWidth=2;rounded=0;strokeColor=#457B9D;fontColor=#1D3557;fillColor=#A8DADC;entryX=0.5;entryY=0.5;entryDx=0;entryDy=0;entryPerimeter=0;" edge="1" parent="1" source="2DmFidUWHQ-WV6GZ3Nr7-216" target="2DmFidUWHQ-WV6GZ3Nr7-200">
          <mxGeometry width="50" height="50" relative="1" as="geometry">
            <mxPoint x="120" y="4481" as="sourcePoint" />
            <mxPoint x="121" y="2482" as="targetPoint" />
          </mxGeometry>
        </mxCell>
        <mxCell id="2DmFidUWHQ-WV6GZ3Nr7-200" value="" style="html=1;points=[[0,0,0,0,5],[0,1,0,0,-5],[1,0,0,0,5],[1,1,0,0,-5]];perimeter=orthogonalPerimeter;outlineConnect=0;targetShapes=umlLifeline;portConstraint=eastwest;newEdgeStyle={&quot;curved&quot;:0,&quot;rounded&quot;:0};strokeColor=#457B9D;fontColor=#1D3557;fillColor=#A8DADC;" vertex="1" parent="1">
          <mxGeometry x="114" y="3600" width="10" height="197" as="geometry" />
        </mxCell>
        <mxCell id="2DmFidUWHQ-WV6GZ3Nr7-201" value="" style="endArrow=none;dashed=1;html=1;dashPattern=1 3;strokeWidth=2;rounded=0;strokeColor=#457B9D;fontColor=#1D3557;fillColor=#A8DADC;entryX=0.557;entryY=1.055;entryDx=0;entryDy=0;entryPerimeter=0;" edge="1" parent="1" source="2DmFidUWHQ-WV6GZ3Nr7-209" target="2DmFidUWHQ-WV6GZ3Nr7-202">
          <mxGeometry width="50" height="50" relative="1" as="geometry">
            <mxPoint x="400" y="4480" as="sourcePoint" />
            <mxPoint x="401" y="2546" as="targetPoint" />
          </mxGeometry>
        </mxCell>
        <mxCell id="2DmFidUWHQ-WV6GZ3Nr7-202" value="" style="html=1;points=[[0,0,0,0,5],[0,1,0,0,-5],[1,0,0,0,5],[1,1,0,0,-5]];perimeter=orthogonalPerimeter;outlineConnect=0;targetShapes=umlLifeline;portConstraint=eastwest;newEdgeStyle={&quot;curved&quot;:0,&quot;rounded&quot;:0};strokeColor=#457B9D;fontColor=#1D3557;fillColor=#A8DADC;" vertex="1" parent="1">
          <mxGeometry x="395" y="3640" width="10" height="121" as="geometry" />
        </mxCell>
        <mxCell id="2DmFidUWHQ-WV6GZ3Nr7-203" value="" style="endArrow=none;dashed=1;html=1;dashPattern=1 3;strokeWidth=2;rounded=0;strokeColor=#457B9D;fontColor=#1D3557;fillColor=#A8DADC;entryX=0.5;entryY=0.986;entryDx=0;entryDy=0;entryPerimeter=0;" edge="1" parent="1" source="2DmFidUWHQ-WV6GZ3Nr7-206" target="2DmFidUWHQ-WV6GZ3Nr7-204">
          <mxGeometry width="50" height="50" relative="1" as="geometry">
            <mxPoint x="680" y="4480" as="sourcePoint" />
            <mxPoint x="680" y="2770" as="targetPoint" />
          </mxGeometry>
        </mxCell>
        <mxCell id="2DmFidUWHQ-WV6GZ3Nr7-204" value="" style="html=1;points=[[0,0,0,0,5],[0,1,0,0,-5],[1,0,0,0,5],[1,1,0,0,-5]];perimeter=orthogonalPerimeter;outlineConnect=0;targetShapes=umlLifeline;portConstraint=eastwest;newEdgeStyle={&quot;curved&quot;:0,&quot;rounded&quot;:0};strokeColor=#457B9D;fontColor=#1D3557;fillColor=#A8DADC;" vertex="1" parent="1">
          <mxGeometry x="675" y="3643" width="10" height="38" as="geometry" />
        </mxCell>
        <mxCell id="2DmFidUWHQ-WV6GZ3Nr7-205" value="" style="html=1;points=[[0,0,0,0,5],[0,1,0,0,-5],[1,0,0,0,5],[1,1,0,0,-5]];perimeter=orthogonalPerimeter;outlineConnect=0;targetShapes=umlLifeline;portConstraint=eastwest;newEdgeStyle={&quot;curved&quot;:0,&quot;rounded&quot;:0};strokeColor=#457B9D;fontColor=#1D3557;fillColor=#A8DADC;" vertex="1" parent="1">
          <mxGeometry x="955" y="3679" width="10" height="41" as="geometry" />
        </mxCell>
        <mxCell id="2DmFidUWHQ-WV6GZ3Nr7-207" value="" style="endArrow=none;dashed=1;html=1;dashPattern=1 3;strokeWidth=2;rounded=0;strokeColor=#457B9D;fontColor=#1D3557;fillColor=#A8DADC;entryX=0.5;entryY=0.986;entryDx=0;entryDy=0;entryPerimeter=0;" edge="1" parent="1" source="2DmFidUWHQ-WV6GZ3Nr7-221" target="2DmFidUWHQ-WV6GZ3Nr7-206">
          <mxGeometry width="50" height="50" relative="1" as="geometry">
            <mxPoint x="680" y="4480" as="sourcePoint" />
            <mxPoint x="680" y="3680" as="targetPoint" />
          </mxGeometry>
        </mxCell>
        <mxCell id="2DmFidUWHQ-WV6GZ3Nr7-206" value="" style="html=1;points=[[0,0,0,0,5],[0,1,0,0,-5],[1,0,0,0,5],[1,1,0,0,-5]];perimeter=orthogonalPerimeter;outlineConnect=0;targetShapes=umlLifeline;portConstraint=eastwest;newEdgeStyle={&quot;curved&quot;:0,&quot;rounded&quot;:0};strokeColor=#457B9D;fontColor=#1D3557;fillColor=#A8DADC;" vertex="1" parent="1">
          <mxGeometry x="675" y="3720" width="10" height="38" as="geometry" />
        </mxCell>
        <mxCell id="2DmFidUWHQ-WV6GZ3Nr7-208" value="" style="endArrow=none;dashed=1;html=1;dashPattern=1 3;strokeWidth=2;rounded=0;strokeColor=#457B9D;fontColor=#1D3557;fillColor=#A8DADC;entryX=0.557;entryY=1.055;entryDx=0;entryDy=0;entryPerimeter=0;" edge="1" parent="1" source="2DmFidUWHQ-WV6GZ3Nr7-213" target="2DmFidUWHQ-WV6GZ3Nr7-209">
          <mxGeometry width="50" height="50" relative="1" as="geometry">
            <mxPoint x="400" y="4480" as="sourcePoint" />
            <mxPoint x="401" y="3768" as="targetPoint" />
          </mxGeometry>
        </mxCell>
        <mxCell id="2DmFidUWHQ-WV6GZ3Nr7-209" value="" style="html=1;points=[[0,0,0,0,5],[0,1,0,0,-5],[1,0,0,0,5],[1,1,0,0,-5]];perimeter=orthogonalPerimeter;outlineConnect=0;targetShapes=umlLifeline;portConstraint=eastwest;newEdgeStyle={&quot;curved&quot;:0,&quot;rounded&quot;:0};strokeColor=#457B9D;fontColor=#1D3557;fillColor=#A8DADC;" vertex="1" parent="1">
          <mxGeometry x="395" y="3959" width="10" height="41" as="geometry" />
        </mxCell>
        <mxCell id="2DmFidUWHQ-WV6GZ3Nr7-210" value="" style="endArrow=none;dashed=1;html=1;dashPattern=1 3;strokeWidth=2;rounded=0;strokeColor=#457B9D;fontColor=#1D3557;fillColor=#A8DADC;entryX=0.5;entryY=0.5;entryDx=0;entryDy=0;entryPerimeter=0;" edge="1" parent="1" source="2DmFidUWHQ-WV6GZ3Nr7-215" target="2DmFidUWHQ-WV6GZ3Nr7-211">
          <mxGeometry width="50" height="50" relative="1" as="geometry">
            <mxPoint x="120" y="4481" as="sourcePoint" />
            <mxPoint x="119" y="3699" as="targetPoint" />
          </mxGeometry>
        </mxCell>
        <mxCell id="2DmFidUWHQ-WV6GZ3Nr7-211" value="" style="html=1;points=[[0,0,0,0,5],[0,1,0,0,-5],[1,0,0,0,5],[1,1,0,0,-5]];perimeter=orthogonalPerimeter;outlineConnect=0;targetShapes=umlLifeline;portConstraint=eastwest;newEdgeStyle={&quot;curved&quot;:0,&quot;rounded&quot;:0};strokeColor=#457B9D;fontColor=#1D3557;fillColor=#A8DADC;" vertex="1" parent="1">
          <mxGeometry x="115" y="3997" width="10" height="43" as="geometry" />
        </mxCell>
        <mxCell id="2DmFidUWHQ-WV6GZ3Nr7-212" value="" style="endArrow=none;dashed=1;html=1;dashPattern=1 3;strokeWidth=2;rounded=0;strokeColor=#457B9D;fontColor=#1D3557;fillColor=#A8DADC;entryX=0.557;entryY=1.055;entryDx=0;entryDy=0;entryPerimeter=0;" edge="1" parent="1" source="2DmFidUWHQ-WV6GZ3Nr7-219" target="2DmFidUWHQ-WV6GZ3Nr7-213">
          <mxGeometry width="50" height="50" relative="1" as="geometry">
            <mxPoint x="400" y="4480" as="sourcePoint" />
            <mxPoint x="401" y="4002" as="targetPoint" />
          </mxGeometry>
        </mxCell>
        <mxCell id="2DmFidUWHQ-WV6GZ3Nr7-213" value="" style="html=1;points=[[0,0,0,0,5],[0,1,0,0,-5],[1,0,0,0,5],[1,1,0,0,-5]];perimeter=orthogonalPerimeter;outlineConnect=0;targetShapes=umlLifeline;portConstraint=eastwest;newEdgeStyle={&quot;curved&quot;:0,&quot;rounded&quot;:0};strokeColor=#457B9D;fontColor=#1D3557;fillColor=#A8DADC;" vertex="1" parent="1">
          <mxGeometry x="395" y="4039" width="10" height="41" as="geometry" />
        </mxCell>
        <mxCell id="2DmFidUWHQ-WV6GZ3Nr7-214" value="" style="endArrow=none;dashed=1;html=1;dashPattern=1 3;strokeWidth=2;rounded=0;strokeColor=#457B9D;fontColor=#1D3557;fillColor=#A8DADC;entryX=0.5;entryY=0.5;entryDx=0;entryDy=0;entryPerimeter=0;" edge="1" parent="1" target="2DmFidUWHQ-WV6GZ3Nr7-215">
          <mxGeometry width="50" height="50" relative="1" as="geometry">
            <mxPoint x="120" y="4481" as="sourcePoint" />
            <mxPoint x="120" y="4019" as="targetPoint" />
          </mxGeometry>
        </mxCell>
        <mxCell id="2DmFidUWHQ-WV6GZ3Nr7-215" value="" style="html=1;points=[[0,0,0,0,5],[0,1,0,0,-5],[1,0,0,0,5],[1,1,0,0,-5]];perimeter=orthogonalPerimeter;outlineConnect=0;targetShapes=umlLifeline;portConstraint=eastwest;newEdgeStyle={&quot;curved&quot;:0,&quot;rounded&quot;:0};strokeColor=#457B9D;fontColor=#1D3557;fillColor=#A8DADC;" vertex="1" parent="1">
          <mxGeometry x="115" y="4082" width="10" height="39" as="geometry" />
        </mxCell>
        <mxCell id="2DmFidUWHQ-WV6GZ3Nr7-217" value="" style="endArrow=none;dashed=1;html=1;dashPattern=1 3;strokeWidth=2;rounded=0;strokeColor=#457B9D;fontColor=#1D3557;fillColor=#A8DADC;entryX=0.5;entryY=0.5;entryDx=0;entryDy=0;entryPerimeter=0;" edge="1" parent="1" source="2DmFidUWHQ-WV6GZ3Nr7-211" target="2DmFidUWHQ-WV6GZ3Nr7-216">
          <mxGeometry width="50" height="50" relative="1" as="geometry">
            <mxPoint x="119" y="3997" as="sourcePoint" />
            <mxPoint x="119" y="3699" as="targetPoint" />
          </mxGeometry>
        </mxCell>
        <mxCell id="2DmFidUWHQ-WV6GZ3Nr7-216" value="" style="html=1;points=[[0,0,0,0,5],[0,1,0,0,-5],[1,0,0,0,5],[1,1,0,0,-5]];perimeter=orthogonalPerimeter;outlineConnect=0;targetShapes=umlLifeline;portConstraint=eastwest;newEdgeStyle={&quot;curved&quot;:0,&quot;rounded&quot;:0};strokeColor=#457B9D;fontColor=#1D3557;fillColor=#A8DADC;" vertex="1" parent="1">
          <mxGeometry x="115" y="3950" width="10" height="17" as="geometry" />
        </mxCell>
        <mxCell id="2DmFidUWHQ-WV6GZ3Nr7-218" value="" style="endArrow=none;dashed=1;html=1;dashPattern=1 3;strokeWidth=2;rounded=0;strokeColor=#457B9D;fontColor=#1D3557;fillColor=#A8DADC;entryX=0.557;entryY=1.055;entryDx=0;entryDy=0;entryPerimeter=0;" edge="1" parent="1" target="2DmFidUWHQ-WV6GZ3Nr7-219">
          <mxGeometry width="50" height="50" relative="1" as="geometry">
            <mxPoint x="400" y="4480" as="sourcePoint" />
            <mxPoint x="401" y="4082" as="targetPoint" />
          </mxGeometry>
        </mxCell>
        <mxCell id="2DmFidUWHQ-WV6GZ3Nr7-219" value="" style="html=1;points=[[0,0,0,0,5],[0,1,0,0,-5],[1,0,0,0,5],[1,1,0,0,-5]];perimeter=orthogonalPerimeter;outlineConnect=0;targetShapes=umlLifeline;portConstraint=eastwest;newEdgeStyle={&quot;curved&quot;:0,&quot;rounded&quot;:0};strokeColor=#457B9D;fontColor=#1D3557;fillColor=#A8DADC;" vertex="1" parent="1">
          <mxGeometry x="395" y="4119" width="10" height="40" as="geometry" />
        </mxCell>
        <mxCell id="2DmFidUWHQ-WV6GZ3Nr7-220" value="" style="endArrow=none;dashed=1;html=1;dashPattern=1 3;strokeWidth=2;rounded=0;strokeColor=#457B9D;fontColor=#1D3557;fillColor=#A8DADC;entryX=0.5;entryY=0.986;entryDx=0;entryDy=0;entryPerimeter=0;" edge="1" parent="1" target="2DmFidUWHQ-WV6GZ3Nr7-221">
          <mxGeometry width="50" height="50" relative="1" as="geometry">
            <mxPoint x="680" y="4480" as="sourcePoint" />
            <mxPoint x="680" y="3757" as="targetPoint" />
          </mxGeometry>
        </mxCell>
        <mxCell id="2DmFidUWHQ-WV6GZ3Nr7-221" value="" style="html=1;points=[[0,0,0,0,5],[0,1,0,0,-5],[1,0,0,0,5],[1,1,0,0,-5]];perimeter=orthogonalPerimeter;outlineConnect=0;targetShapes=umlLifeline;portConstraint=eastwest;newEdgeStyle={&quot;curved&quot;:0,&quot;rounded&quot;:0};strokeColor=#457B9D;fontColor=#1D3557;fillColor=#A8DADC;" vertex="1" parent="1">
          <mxGeometry x="675" y="4153" width="10" height="91" as="geometry" />
        </mxCell>
        <mxCell id="2DmFidUWHQ-WV6GZ3Nr7-115" value="Loop" style="shape=umlFrame;whiteSpace=wrap;html=1;pointerEvents=0;strokeColor=#457B9D;fontColor=#1D3557;fillColor=#A8DADC;" vertex="1" parent="1">
          <mxGeometry x="640" y="4170" width="1280" height="190" as="geometry" />
        </mxCell>
        <mxCell id="2DmFidUWHQ-WV6GZ3Nr7-116" value="[While Transaction Fails]" style="text;html=1;strokeColor=none;fillColor=none;align=center;verticalAlign=middle;whiteSpace=wrap;rounded=0;fontColor=#1D3557;" vertex="1" parent="1">
          <mxGeometry x="680" y="4170" width="190" height="50" as="geometry" />
        </mxCell>
        <mxCell id="2DmFidUWHQ-WV6GZ3Nr7-222" value="" style="html=1;points=[[0,0,0,0,5],[0,1,0,0,-5],[1,0,0,0,5],[1,1,0,0,-5]];perimeter=orthogonalPerimeter;outlineConnect=0;targetShapes=umlLifeline;portConstraint=eastwest;newEdgeStyle={&quot;curved&quot;:0,&quot;rounded&quot;:0};strokeColor=#457B9D;fontColor=#1D3557;fillColor=#A8DADC;" vertex="1" parent="1">
          <mxGeometry x="1796" y="4241" width="10" height="37" as="geometry" />
        </mxCell>
        <mxCell id="2DmFidUWHQ-WV6GZ3Nr7-223" value="" style="html=1;points=[[0,0,0,0,5],[0,1,0,0,-5],[1,0,0,0,5],[1,1,0,0,-5]];perimeter=orthogonalPerimeter;outlineConnect=0;targetShapes=umlLifeline;portConstraint=eastwest;newEdgeStyle={&quot;curved&quot;:0,&quot;rounded&quot;:0};strokeColor=#457B9D;fontColor=#1D3557;fillColor=#A8DADC;" vertex="1" parent="1">
          <mxGeometry x="1517" y="4270" width="10" height="20" as="geometry" />
        </mxCell>
        <mxCell id="2DmFidUWHQ-WV6GZ3Nr7-224" value="" style="html=1;points=[[0,0,0,0,5],[0,1,0,0,-5],[1,0,0,0,5],[1,1,0,0,-5]];perimeter=orthogonalPerimeter;outlineConnect=0;targetShapes=umlLifeline;portConstraint=eastwest;newEdgeStyle={&quot;curved&quot;:0,&quot;rounded&quot;:0};strokeColor=#457B9D;fontColor=#1D3557;fillColor=#A8DADC;" vertex="1" parent="1">
          <mxGeometry x="1794" y="4302" width="10" height="30" as="geometry" />
        </mxCell>
        <mxCell id="2DmFidUWHQ-WV6GZ3Nr7-225" value="" style="html=1;points=[[0,0,0,0,5],[0,1,0,0,-5],[1,0,0,0,5],[1,1,0,0,-5]];perimeter=orthogonalPerimeter;outlineConnect=0;targetShapes=umlLifeline;portConstraint=eastwest;newEdgeStyle={&quot;curved&quot;:0,&quot;rounded&quot;:0};strokeColor=#457B9D;fontColor=#1D3557;fillColor=#A8DADC;" vertex="1" parent="1">
          <mxGeometry x="675" y="4312" width="10" height="15" as="geometry" />
        </mxCell>
        <mxCell id="2DmFidUWHQ-WV6GZ3Nr7-95" value="Opt" style="shape=umlFrame;whiteSpace=wrap;html=1;pointerEvents=0;strokeColor=#457B9D;fontColor=#1D3557;fillColor=#A8DADC;" vertex="1" parent="1">
          <mxGeometry x="80" y="1980" width="2600" height="1500" as="geometry" />
        </mxCell>
        <mxCell id="2DmFidUWHQ-WV6GZ3Nr7-96" value="[Sending Order]" style="text;html=1;strokeColor=none;fillColor=none;align=center;verticalAlign=middle;whiteSpace=wrap;rounded=0;fontColor=#1D3557;" vertex="1" parent="1">
          <mxGeometry x="140" y="2010" width="110" height="10" as="geometry" />
        </mxCell>
        <mxCell id="2DmFidUWHQ-WV6GZ3Nr7-103" value="Opt" style="shape=umlFrame;whiteSpace=wrap;html=1;pointerEvents=0;strokeColor=#457B9D;fontColor=#1D3557;fillColor=#A8DADC;" vertex="1" parent="1">
          <mxGeometry x="80" y="3530" width="920" height="310" as="geometry" />
        </mxCell>
        <mxCell id="2DmFidUWHQ-WV6GZ3Nr7-104" value="[Viewing Order]" style="text;html=1;strokeColor=none;fillColor=none;align=center;verticalAlign=middle;whiteSpace=wrap;rounded=0;fontColor=#1D3557;" vertex="1" parent="1">
          <mxGeometry x="150" y="3550" width="110" height="10" as="geometry" />
        </mxCell>
        <mxCell id="2DmFidUWHQ-WV6GZ3Nr7-117" value="Opt" style="shape=umlFrame;whiteSpace=wrap;html=1;pointerEvents=0;strokeColor=#457B9D;fontColor=#1D3557;fillColor=#A8DADC;" vertex="1" parent="1">
          <mxGeometry x="80" y="3890" width="1840" height="470" as="geometry" />
        </mxCell>
        <mxCell id="2DmFidUWHQ-WV6GZ3Nr7-118" value="[Challenging Order]" style="text;html=1;strokeColor=none;fillColor=none;align=center;verticalAlign=middle;whiteSpace=wrap;rounded=0;fontColor=#1D3557;" vertex="1" parent="1">
          <mxGeometry x="150" y="3910" width="110" height="10" as="geometry" />
        </mxCell>
      </root>
    </mxGraphModel>
  </diagram>
</mxfile>
